<svg className="W-full h-full" viewBox="0 0 897 598" fill="none" xmlns="http://www.w3.org/2000/svg">
<path d="M820.181 347.103L818.818 345.501C813.256 338.858 805.984 333.861 797.788 331.051C789.593 328.241 780.785 327.725 772.317 329.558C770.114 330.058 767.951 330.722 765.847 331.543C758.229 334.626 751.491 339.542 746.23 345.856C740.97 352.17 737.352 359.685 735.696 367.734C733.818 377.231 734.5 387.696 729.381 395.84C722.635 406.437 708.702 408.996 696.335 410.599C683.969 412.202 670.023 414.809 663.338 425.429C659.14 432.091 658.853 440.631 660.527 448.357C664.976 468.808 682.342 484.93 702.112 491.126C721.882 497.321 743.553 494.714 762.905 487.382C790.018 477.18 814.165 457.339 826.293 430.776C838.42 404.212 837.2 370.892 820.181 347.103Z" fill="#F8485E"/>
<path d="M99.7702 324.858L101.708 325.121C110.746 326.582 120.014 325.148 128.188 321.023C136.361 316.899 143.021 310.296 147.216 302.158C150.625 295.311 152.291 287.728 152.063 280.083C151.836 272.438 149.723 264.968 145.912 258.336C141.355 250.562 134.382 243.721 132.971 234.859C131.129 223.329 139.262 212.936 146.869 204.193C154.475 195.45 162.596 185.057 160.706 173.492C159.51 166.316 154.451 160.145 148.519 155.803C132.804 144.298 110.75 143.843 93.1563 151.665C75.5632 159.487 62.1201 174.772 53.1262 191.791C40.4965 215.639 35.8799 244.355 43.8692 270.356C51.8585 296.357 73.231 318.782 99.7702 324.858Z" fill="#1089FF"/>
<path d="M830.651 256.607C834.941 238.513 823.751 220.368 805.658 216.077C787.564 211.787 769.418 222.977 765.128 241.071C760.837 259.165 772.027 277.31 790.121 281.601C808.215 285.891 826.361 274.701 830.651 256.607Z" fill="#00C1D4"/>
<path d="M716.188 52.3008H182.844V363.691H472.168L491.472 381.38L508.156 363.691H716.188V52.3008Z" fill="#FAFAFA"/>
<path d="M716.2 52.3008H182.844V75.3118H716.2V52.3008Z" fill="#E0E0E0"/>
<path d="M196.072 67.2031C197.723 67.2031 199.062 65.8645 199.062 64.2131C199.062 62.5618 197.723 61.2231 196.072 61.2231C194.421 61.2231 193.082 62.5618 193.082 64.2131C193.082 65.8645 194.421 67.2031 196.072 67.2031Z" fill="#263238"/>
<path d="M207.195 67.2031C208.846 67.2031 210.185 65.8645 210.185 64.2131C210.185 62.5618 208.846 61.2231 207.195 61.2231C205.544 61.2231 204.205 62.5618 204.205 64.2131C204.205 65.8645 205.544 67.2031 207.195 67.2031Z" fill="#263238"/>
<path d="M218.317 67.2031C219.968 67.2031 221.307 65.8645 221.307 64.2131C221.307 62.5618 219.968 61.2231 218.317 61.2231C216.666 61.2231 215.327 62.5618 215.327 64.2131C215.327 65.8645 216.666 67.2031 218.317 67.2031Z" fill="#263238"/>
<path d="M450.258 101.851C450.258 102.019 439.733 102.162 426.745 102.162C413.756 102.162 403.231 102.019 403.231 101.851C403.231 101.684 413.756 101.541 426.745 101.541C439.733 101.541 450.258 101.66 450.258 101.851Z" fill="#263238"/>
<path d="M512.797 101.851C512.797 102.019 502.272 102.162 489.296 102.162C476.319 102.162 465.782 102.019 465.782 101.851C465.782 101.684 476.307 101.541 489.296 101.541C502.284 101.541 512.797 101.66 512.797 101.851Z" fill="#263238"/>
<path d="M575.347 101.851C575.347 102.019 564.822 102.162 551.834 102.162C538.845 102.162 528.32 102.019 528.32 101.851C528.32 101.684 538.845 101.541 551.834 101.541C564.822 101.541 575.347 101.66 575.347 101.851Z" fill="#263238"/>
<path d="M638.437 101.851C638.437 102.019 627.912 102.162 614.935 102.162C601.959 102.162 591.422 102.019 591.422 101.851C591.422 101.684 601.947 101.541 614.935 101.541C627.924 101.541 638.437 101.66 638.437 101.851Z" fill="#263238"/>
<path d="M266.23 126.441V142.42C266.228 142.791 266.3 143.159 266.441 143.502C266.582 143.845 266.79 144.157 267.053 144.419C267.315 144.682 267.627 144.89 267.97 145.031C268.313 145.172 268.681 145.244 269.052 145.243H287.136L291.656 150.995L296.608 145.458H315.421C315.792 145.458 316.159 145.385 316.501 145.243C316.844 145.101 317.155 144.893 317.417 144.631C317.679 144.369 317.887 144.058 318.029 143.715C318.171 143.373 318.244 143.006 318.244 142.635V126.358C318.244 125.987 318.171 125.62 318.029 125.278C317.887 124.935 317.679 124.624 317.417 124.362C317.155 124.1 316.844 123.892 316.501 123.75C316.159 123.608 315.792 123.535 315.421 123.535L269.04 123.619C268.294 123.622 267.579 123.921 267.052 124.45C266.525 124.979 266.23 125.695 266.23 126.441V126.441Z" fill="#84C0FF"/>
<path d="M277.101 139.143H274.398V136.595L280.642 129.766H280.761C281.094 129.633 281.455 129.589 281.81 129.639C282.165 129.69 282.5 129.833 282.782 130.053C283.037 130.353 283.219 130.708 283.315 131.089C283.41 131.471 283.416 131.869 283.333 132.254V132.373L277.101 139.143ZM275.295 138.246H276.707L282.471 131.943C282.533 131.522 282.431 131.094 282.184 130.747C282.029 130.646 281.851 130.582 281.666 130.561C281.482 130.541 281.294 130.563 281.12 130.627L275.295 137.002V138.246Z" fill="white"/>
<path d="M294.766 137.42V138.305H289.611V131.201H294.635V132.086H290.628V134.275H294.216V135.148H290.628V137.432L294.766 137.42Z" fill="white"/>
<path d="M301.284 130.783V138.306H300.352V137.456C300.128 137.752 299.836 137.989 299.5 138.148C299.165 138.306 298.796 138.381 298.426 138.365C297.729 138.319 297.076 138.01 296.599 137.5C296.122 136.991 295.856 136.319 295.856 135.621C295.856 134.922 296.122 134.25 296.599 133.741C297.076 133.231 297.729 132.922 298.426 132.876C298.786 132.861 299.144 132.933 299.471 133.085C299.797 133.236 300.083 133.464 300.304 133.749V130.783H301.284ZM300.316 135.567C300.358 135.307 300.344 135.04 300.273 134.786C300.203 134.532 300.078 134.297 299.907 134.096C299.736 133.895 299.524 133.734 299.285 133.623C299.046 133.512 298.785 133.455 298.522 133.455C298.258 133.455 297.998 133.512 297.758 133.623C297.519 133.734 297.307 133.895 297.136 134.096C296.965 134.297 296.841 134.532 296.77 134.786C296.699 135.04 296.685 135.307 296.728 135.567C296.685 135.827 296.699 136.093 296.77 136.347C296.841 136.601 296.965 136.837 297.136 137.038C297.307 137.239 297.519 137.4 297.758 137.511C297.998 137.621 298.258 137.679 298.522 137.679C298.785 137.679 299.046 137.621 299.285 137.511C299.524 137.4 299.736 137.239 299.907 137.038C300.078 136.837 300.203 136.601 300.273 136.347C300.344 136.093 300.358 135.827 300.316 135.567V135.567Z" fill="white"/>
<path d="M302.958 131.273C302.958 131.187 302.975 131.102 303.008 131.023C303.041 130.944 303.09 130.872 303.151 130.812C303.213 130.752 303.285 130.704 303.365 130.673C303.445 130.641 303.53 130.625 303.616 130.627C303.7 130.622 303.785 130.635 303.865 130.664C303.944 130.693 304.017 130.738 304.079 130.796C304.141 130.854 304.19 130.924 304.223 131.002C304.257 131.08 304.274 131.164 304.274 131.249C304.274 131.423 304.204 131.591 304.081 131.714C303.958 131.837 303.79 131.907 303.616 131.907C303.441 131.907 303.274 131.837 303.151 131.714C303.027 131.591 302.958 131.423 302.958 131.249V131.273ZM303.125 132.935H304.106V138.305H303.125V132.935Z" fill="white"/>
<path d="M308.986 137.994C308.643 138.255 308.22 138.386 307.79 138.365C307.562 138.393 307.33 138.37 307.112 138.296C306.895 138.222 306.696 138.1 306.532 137.94C306.368 137.779 306.242 137.583 306.163 137.367C306.085 137.151 306.057 136.919 306.08 136.691V133.737H305.171V132.935H306.08V131.739H307.061V132.935H308.603V133.737H307.061V136.643C307.061 137.229 307.36 137.552 307.898 137.552C308.176 137.556 308.446 137.463 308.663 137.289L308.986 137.994Z" fill="white"/>
<path d="M399.38 327.477H223.018V150.601H399.38V327.477ZM224.214 326.281H398.184V151.797H224.214V326.281Z" fill="#84C0FF"/>
<path d="M313.136 330.275H307.049V324.295H313.136V330.275ZM308.245 329.079H311.94V325.491H308.245V329.079Z" fill="#84C0FF"/>
<path d="M401.855 233.017H395.768V227.037H401.855V233.017ZM396.964 231.821H400.659V228.233H396.964V231.821Z" fill="#84C0FF"/>
<path d="M226.044 233.017H219.944V227.037H226.044V233.017ZM221.152 231.821H224.848V228.233H221.14L221.152 231.821Z" fill="#84C0FF"/>
<path d="M667.451 242.25H433.37V185.739H667.451V242.25ZM434.566 241.054H666.255V186.935H434.566V241.054Z" fill="#84C0FF"/>
<path d="M669.138 265.249C669.138 265.416 618.069 265.56 555.075 265.56C492.082 265.56 441.001 265.416 441.001 265.249C441.001 265.082 492.058 264.938 555.075 264.938C618.093 264.938 669.138 265.082 669.138 265.249Z" fill="#263238"/>
<path d="M667.917 299.957C667.917 300.136 616.836 300.28 553.843 300.28C490.85 300.28 439.769 300.136 439.769 299.957C439.769 299.778 490.838 299.646 553.843 299.646C616.848 299.646 667.917 299.79 667.917 299.957Z" fill="#E0E0E0"/>
<path d="M667.917 309.142C667.917 309.309 616.836 309.453 553.843 309.453C490.85 309.453 439.769 309.309 439.769 309.142C439.769 308.975 490.838 308.831 553.843 308.831C616.848 308.831 667.917 308.963 667.917 309.142Z" fill="#E0E0E0"/>
<path d="M556.535 277.293C556.535 277.472 530.665 277.604 498.768 277.604C466.87 277.604 441.001 277.472 441.001 277.293C441.001 277.114 466.858 276.982 498.768 276.982C530.677 276.982 556.535 277.125 556.535 277.293Z" fill="#263238"/>
<path d="M690.092 338.779H684.112V337.583H690.092V338.779ZM678.132 338.779H672.152V337.583H678.132V338.779ZM666.172 338.779H660.192V337.583H666.172V338.779ZM654.212 338.779H648.232V337.583H654.212V338.779ZM690.69 337.463H689.494V331.483H690.69V337.463ZM644.166 336.865H642.97V330.885H644.166V336.865ZM690.69 325.503H689.494V319.523H690.69V325.503ZM644.166 324.905H642.97V318.925H644.166V324.905ZM690.69 313.543H689.494V307.563H690.69V313.543ZM644.166 312.945H642.97V306.965H644.166V312.945ZM690.69 301.583H689.494V295.603H690.69V301.583ZM644.166 300.985H642.97V295.005H644.166V300.985ZM688.059 292.255H682.079V291.059H688.059V292.255ZM676.099 292.255H670.119V291.059H676.099V292.255ZM664.139 292.255H658.159V291.059H664.139V292.255ZM652.179 292.255H646.199V291.059H652.179V292.255Z" fill="#263238"/>
<path d="M643.914 296.608C643.044 296.608 642.193 296.35 641.469 295.866C640.745 295.383 640.181 294.695 639.848 293.891C639.515 293.087 639.427 292.202 639.597 291.348C639.767 290.495 640.186 289.71 640.802 289.095C641.417 288.479 642.202 288.06 643.055 287.89C643.909 287.72 644.794 287.808 645.598 288.141C646.403 288.474 647.09 289.038 647.574 289.762C648.057 290.486 648.315 291.336 648.315 292.207C648.315 293.374 647.852 294.494 647.026 295.319C646.201 296.145 645.081 296.608 643.914 296.608ZM643.914 289.014C643.28 289.014 642.659 289.202 642.132 289.555C641.605 289.907 641.194 290.409 640.952 290.995C640.709 291.581 640.647 292.227 640.771 292.849C640.896 293.471 641.202 294.042 641.652 294.49C642.101 294.937 642.673 295.242 643.296 295.364C643.919 295.486 644.563 295.421 645.149 295.177C645.734 294.932 646.234 294.52 646.585 293.991C646.936 293.462 647.122 292.841 647.119 292.207C647.107 291.365 646.764 290.562 646.164 289.971C645.564 289.381 644.756 289.049 643.914 289.05V289.014Z" fill="#263238"/>
<path d="M689.793 296.608C688.922 296.608 688.071 296.35 687.348 295.866C686.624 295.383 686.06 294.695 685.727 293.891C685.394 293.087 685.306 292.202 685.476 291.348C685.646 290.495 686.065 289.71 686.681 289.095C687.296 288.479 688.08 288.06 688.934 287.89C689.788 287.72 690.673 287.808 691.477 288.141C692.281 288.474 692.969 289.038 693.452 289.762C693.936 290.486 694.194 291.336 694.194 292.207C694.194 293.374 693.731 294.494 692.905 295.319C692.08 296.145 690.96 296.608 689.793 296.608ZM689.793 289.014C689.158 289.014 688.538 289.202 688.011 289.555C687.484 289.907 687.073 290.409 686.831 290.995C686.588 291.581 686.525 292.227 686.65 292.849C686.775 293.471 687.081 294.042 687.531 294.49C687.98 294.937 688.552 295.242 689.175 295.364C689.798 295.486 690.442 295.421 691.028 295.177C691.613 294.932 692.113 294.52 692.464 293.991C692.815 293.462 693.001 292.841 692.998 292.207C692.986 291.365 692.642 290.562 692.043 289.971C691.443 289.381 690.635 289.049 689.793 289.05V289.014Z" fill="#263238"/>
<path d="M643.914 343.826C643.043 343.826 642.192 343.568 641.468 343.083C640.743 342.599 640.179 341.911 639.847 341.106C639.514 340.301 639.427 339.416 639.598 338.562C639.769 337.708 640.189 336.923 640.806 336.308C641.423 335.693 642.208 335.275 643.063 335.107C643.917 334.938 644.803 335.027 645.607 335.362C646.411 335.697 647.097 336.263 647.579 336.988C648.062 337.714 648.318 338.566 648.315 339.437C648.312 340.602 647.847 341.718 647.022 342.541C646.197 343.364 645.079 343.826 643.914 343.826V343.826ZM643.914 336.231C643.28 336.231 642.66 336.419 642.133 336.772C641.606 337.124 641.195 337.624 640.953 338.21C640.71 338.796 640.647 339.44 640.77 340.062C640.894 340.684 641.199 341.255 641.647 341.703C642.096 342.151 642.667 342.457 643.289 342.58C643.91 342.704 644.555 342.641 645.141 342.398C645.726 342.155 646.227 341.745 646.579 341.217C646.931 340.69 647.119 340.071 647.119 339.437C647.119 338.587 646.782 337.771 646.18 337.17C645.579 336.569 644.764 336.231 643.914 336.231Z" fill="#263238"/>
<path d="M689.793 343.826C688.922 343.826 688.07 343.568 687.346 343.083C686.622 342.599 686.058 341.911 685.725 341.106C685.393 340.301 685.306 339.416 685.477 338.562C685.648 337.708 686.068 336.923 686.685 336.308C687.302 335.693 688.087 335.275 688.942 335.107C689.796 334.938 690.681 335.027 691.485 335.362C692.289 335.697 692.976 336.263 693.458 336.988C693.94 337.714 694.197 338.566 694.194 339.437C694.191 340.602 693.726 341.718 692.901 342.541C692.076 343.364 690.958 343.826 689.793 343.826ZM689.793 336.231C689.159 336.231 688.539 336.419 688.012 336.772C687.485 337.124 687.074 337.624 686.832 338.21C686.589 338.796 686.526 339.44 686.649 340.062C686.773 340.684 687.078 341.255 687.526 341.703C687.975 342.151 688.546 342.457 689.168 342.58C689.789 342.704 690.434 342.641 691.019 342.398C691.605 342.155 692.106 341.745 692.458 341.217C692.81 340.69 692.998 340.071 692.998 339.437C692.998 338.587 692.66 337.771 692.059 337.17C691.458 336.569 690.643 336.231 689.793 336.231Z" fill="#263238"/>
<path d="M665.813 306.415H657.202V302.337H679.244V306.415H670.633V328.314H665.849L665.813 306.415Z" fill="#263238"/>
<path d="M693.25 109.326C693.25 109.326 693.656 109.326 694.374 109.135C695.424 108.879 696.369 108.302 697.077 107.485C697.588 106.904 697.957 106.212 698.153 105.463C698.335 104.55 698.391 103.617 698.321 102.689C698.189 100.727 698.787 98.1557 697.005 96.29C696.141 95.331 694.943 94.7402 693.656 94.6395C692.305 94.6395 690.834 94.6395 689.339 94.6395H679.771H657.836C656.928 94.6438 656.039 94.8969 655.265 95.3714C654.491 95.8458 653.862 96.5235 653.447 97.3305C653.044 98.1298 652.854 99.0197 652.897 99.9139V102.701C652.841 103.581 652.898 104.465 653.064 105.332C653.283 106.139 653.693 106.881 654.26 107.496C654.851 108.108 655.582 108.568 656.389 108.836C657.171 109.024 657.977 109.096 658.781 109.051L676.721 109.123L688.8 109.219H692.089H692.939H693.226C693.131 109.234 693.034 109.234 692.939 109.219H692.089L688.8 109.279L676.721 109.386L658.781 109.446C657.901 109.507 657.016 109.426 656.162 109.207C655.264 108.939 654.449 108.445 653.796 107.773C653.143 107.101 652.673 106.273 652.43 105.368C652.303 104.904 652.235 104.425 652.227 103.944V99.9617C652.186 99.2039 652.3 98.4458 652.562 97.7334C652.823 97.021 653.227 96.3693 653.748 95.8178C654.27 95.2663 654.898 94.8265 655.594 94.5253C656.291 94.224 657.041 94.0676 657.8 94.0654H679.735H689.303C690.81 94.0654 692.233 94.0654 693.656 94.0654C695.042 94.1952 696.325 94.8499 697.244 95.8953C698.092 96.8497 698.571 98.0754 698.596 99.3517C698.596 100.548 698.596 101.576 698.596 102.593C698.657 103.548 698.58 104.506 698.368 105.439C698.096 106.369 697.576 107.208 696.864 107.865C696.152 108.522 695.275 108.974 694.326 109.171C693.977 109.277 693.614 109.33 693.25 109.326V109.326Z" fill="#263238"/>
<path d="M349.04 123.535H325.108C322.79 123.535 320.91 125.415 320.91 127.733V141.188C320.91 143.507 322.79 145.386 325.108 145.386H349.04C351.359 145.386 353.238 143.507 353.238 141.188V127.733C353.238 125.415 351.359 123.535 349.04 123.535Z" fill="#84C0FF"/>
<path d="M335.453 138.891H328.277V130.089H335.453V138.891ZM329.473 137.695H334.257V131.285H329.473V137.695Z" fill="white"/>
<path d="M333.026 129.048H330.682V130.579H333.026V129.048Z" fill="white"/>
<path d="M336.542 130.029H327.165V131.225H336.542V130.029Z" fill="white"/>
<path d="M348.191 130.902C348.191 131.139 348.121 131.37 347.989 131.567C347.858 131.763 347.671 131.917 347.453 132.007C347.234 132.098 346.994 132.121 346.762 132.075C346.53 132.029 346.316 131.915 346.149 131.748C345.982 131.58 345.868 131.367 345.822 131.135C345.776 130.903 345.799 130.663 345.89 130.444C345.98 130.226 346.134 130.039 346.33 129.908C346.527 129.776 346.758 129.706 346.995 129.706C347.312 129.706 347.616 129.832 347.841 130.056C348.065 130.281 348.191 130.585 348.191 130.902Z" fill="white"/>
<path d="M348.191 134.084C348.191 134.32 348.121 134.551 347.989 134.748C347.858 134.945 347.671 135.098 347.453 135.189C347.234 135.279 346.994 135.303 346.762 135.257C346.53 135.211 346.316 135.097 346.149 134.929C345.982 134.762 345.868 134.549 345.822 134.317C345.776 134.085 345.799 133.845 345.89 133.626C345.98 133.407 346.134 133.221 346.33 133.089C346.527 132.958 346.758 132.888 346.995 132.888C347.312 132.888 347.616 133.014 347.841 133.238C348.065 133.462 348.191 133.766 348.191 134.084Z" fill="white"/>
<path d="M348.191 137.265C348.191 137.501 348.121 137.733 347.989 137.929C347.858 138.126 347.671 138.279 347.453 138.37C347.234 138.46 346.994 138.484 346.762 138.438C346.53 138.392 346.316 138.278 346.149 138.111C345.982 137.943 345.868 137.73 345.822 137.498C345.776 137.266 345.799 137.026 345.89 136.807C345.98 136.589 346.134 136.402 346.33 136.27C346.527 136.139 346.758 136.069 346.995 136.069C347.312 136.069 347.616 136.195 347.841 136.419C348.065 136.643 348.191 136.948 348.191 137.265Z" fill="white"/>
<g opacity="0.3">
<path opacity="0.3" d="M340.764 123.535H349.04C350.153 123.535 351.221 123.977 352.008 124.765C352.796 125.552 353.238 126.62 353.238 127.733V141.188C353.238 142.301 352.796 143.369 352.008 144.157C351.221 144.944 350.153 145.386 349.04 145.386H340.764V123.535Z" fill="white"/>
</g>
<path d="M387.384 162.764H235.025V310.159H387.384V162.764Z" fill="#455A64"/>
<g opacity="0.3">
<path opacity="0.3" d="M246.842 297.553L288.989 221.703L323.458 270.177L344.4 244.439L375.567 297.553H246.842Z" fill="black"/>
</g>
<g opacity="0.3">
<path opacity="0.3" d="M338.145 206.908C338.147 209.078 337.506 211.199 336.302 213.004C335.098 214.81 333.386 216.217 331.383 217.049C329.379 217.881 327.173 218.1 325.045 217.678C322.917 217.256 320.961 216.213 319.426 214.679C317.891 213.146 316.846 211.192 316.422 209.064C315.997 206.936 316.214 204.73 317.044 202.726C317.873 200.721 319.279 199.007 321.083 197.802C322.887 196.596 325.008 195.953 327.177 195.953C330.084 195.953 332.872 197.106 334.928 199.161C336.985 201.215 338.141 204.001 338.145 206.908Z" fill="black"/>
</g>
<g opacity="0.3">
<path opacity="0.3" d="M375.543 174.353L246.83 174.245C246.973 174.09 245.443 175.633 246.088 174.999V191.671C246.088 197.197 246.088 202.666 246.088 208.08C246.088 218.916 246.088 229.525 246.088 239.846C246.088 260.489 246.088 280.008 246.16 297.96V298.594H246.794L340.273 298.271L366.382 298.103L373.223 298.031H374.957C375.144 298.049 375.333 298.049 375.52 298.031H374.886H373.08L366.119 297.96L339.807 297.792L247.368 297.469C247.368 279.697 247.368 260.393 247.428 239.99C247.428 229.668 247.428 219.06 247.428 208.224V175.693L374.814 175.597C374.945 212.135 375.053 242.573 375.137 263.969C375.197 274.733 375.256 283.105 375.292 289.002C375.292 291.864 375.316 294.077 375.364 295.639C375.364 296.357 375.364 296.919 375.364 297.362C375.35 297.561 375.35 297.761 375.364 297.96C375.382 297.781 375.382 297.6 375.364 297.421C375.364 297.003 375.364 296.465 375.364 295.771C375.364 294.24 375.364 292.063 375.436 289.265C375.436 283.452 375.532 275.044 375.591 264.364C375.675 242.74 375.783 211.943 375.914 174.975V174.353H375.543Z" fill="black"/>
</g>
<path d="M624.312 155.982H457.326C454.631 155.982 452.446 158.167 452.446 160.862V172.894C452.446 175.589 454.631 177.774 457.326 177.774H624.312C627.006 177.774 629.191 175.589 629.191 172.894V160.862C629.191 158.167 627.006 155.982 624.312 155.982Z" fill="#84C0FF"/>
<g opacity="0.3">
<path opacity="0.3" d="M515.691 160.073H457.972V172.894H515.691V160.073Z" fill="white"/>
</g>
<path d="M463.904 164.833H461.823V164.079H466.834V164.833H464.765V170.143H463.904V164.833Z" fill="white"/>
<path d="M467.396 164.139C467.396 163.99 467.456 163.847 467.561 163.742C467.667 163.636 467.81 163.577 467.959 163.577C468.108 163.577 468.251 163.636 468.356 163.742C468.461 163.847 468.521 163.99 468.521 164.139C468.521 164.288 468.461 164.431 468.356 164.537C468.251 164.642 468.108 164.701 467.959 164.701C467.81 164.701 467.667 164.642 467.561 164.537C467.456 164.431 467.396 164.288 467.396 164.139V164.139ZM467.54 165.551H468.377V170.143H467.54V165.551Z" fill="white"/>
<path d="M472.539 169.832C472.251 170.052 471.896 170.166 471.534 170.155C471.339 170.177 471.142 170.156 470.956 170.092C470.771 170.028 470.602 169.923 470.462 169.786C470.322 169.648 470.215 169.481 470.148 169.297C470.081 169.112 470.056 168.915 470.075 168.72V166.244H469.298V165.562H470.027V164.558H470.865V165.562H472.18V166.244H470.865V168.732C470.85 168.831 470.858 168.933 470.888 169.03C470.918 169.126 470.97 169.214 471.039 169.288C471.108 169.361 471.192 169.418 471.286 169.455C471.381 169.491 471.482 169.505 471.582 169.497C471.816 169.501 472.043 169.425 472.228 169.282L472.539 169.832Z" fill="white"/>
<path d="M473.544 163.721H474.369V170.143H473.544V163.721Z" fill="white"/>
<path d="M480.074 168.122H476.354C476.408 168.515 476.61 168.873 476.919 169.122C477.228 169.371 477.621 169.492 478.017 169.461C478.265 169.471 478.512 169.427 478.741 169.332C478.97 169.237 479.176 169.094 479.344 168.911L479.799 169.449C479.459 169.791 479.028 170.028 478.558 170.131C478.087 170.234 477.596 170.199 477.145 170.03C476.694 169.86 476.301 169.564 476.015 169.177C475.728 168.789 475.559 168.328 475.529 167.847C475.507 167.535 475.551 167.222 475.657 166.929C475.763 166.635 475.93 166.367 476.147 166.141C476.363 165.916 476.624 165.738 476.913 165.62C477.202 165.502 477.513 165.446 477.825 165.455C478.136 165.445 478.446 165.502 478.734 165.62C479.022 165.739 479.282 165.917 479.497 166.142C479.711 166.368 479.875 166.637 479.979 166.93C480.083 167.224 480.123 167.536 480.098 167.847C480.096 167.939 480.088 168.031 480.074 168.122ZM476.354 167.524H479.296C479.251 167.166 479.076 166.837 478.805 166.599C478.534 166.36 478.186 166.229 477.825 166.229C477.464 166.229 477.116 166.36 476.845 166.599C476.574 166.837 476.4 167.166 476.354 167.524Z" fill="white"/>
<path d="M506.506 165.945H511.996L509.257 168.684L506.506 165.945Z" fill="white"/>
<path d="M532.22 168.313C532.22 169.413 531.311 170.059 529.601 170.059H526.156V163.685H529.409C531.096 163.685 531.909 164.378 531.909 165.359C531.914 165.647 531.836 165.93 531.686 166.176C531.535 166.422 531.318 166.619 531.06 166.746C531.399 166.844 531.696 167.05 531.906 167.333C532.115 167.616 532.226 167.961 532.22 168.313ZM527.95 165.048V166.244H529.146C529.744 166.244 530.055 166.041 530.055 165.622C530.055 165.203 529.744 165.012 529.146 165.012L527.95 165.048ZM530.414 168.182C530.414 167.739 530.079 167.524 529.469 167.524H527.95V168.827H529.469C530.079 168.768 530.414 168.552 530.414 168.122V168.182Z" fill="white"/>
<path d="M542.123 163.589H542.589L541.309 169.964H540.843L542.123 163.589Z" fill="white"/>
<path d="M552.815 159.87H551.619V173.671H552.815V159.87Z" fill="white"/>
<path d="M580.478 159.594H579.282V173.396H580.478V159.594Z" fill="white"/>
<path d="M606.216 159.87H605.021V173.671H606.216V159.87Z" fill="white"/>
<path d="M566.856 163.29H559.31V164.486H566.856V163.29Z" fill="white"/>
<path d="M566.856 167.644H559.31V168.84H566.856V167.644Z" fill="white"/>
<path d="M563.089 165.55H559.31V166.746H563.089V165.55Z" fill="white"/>
<path d="M571.484 165.981H575.467L573.482 167.775L571.484 165.981Z" fill="white"/>
<path d="M591.063 169.354H584.162V163.685H587.738V164.881H585.358V168.158H589.867V166.962H591.063V169.354Z" fill="white"/>
<path d="M595.045 169.354H592.103V168.158H593.849V164.881H589.341V166.4H588.145V163.685H595.045V169.354Z" fill="white"/>
<path d="M597.844 166.065H601.527L599.686 167.775L597.844 166.065Z" fill="white"/>
<path d="M619.086 170.944H612.711V163.194H619.086V170.944ZM613.907 169.748H617.89V164.39H613.907V169.748Z" fill="white"/>
<path d="M616.908 162.393H614.887V163.709H616.908V162.393Z" fill="white"/>
<path d="M619.934 163.158H611.861V164.354H619.934V163.158Z" fill="white"/>
<path d="M543.605 176.542L550.686 184.328L557.539 176.386L543.605 176.542Z" fill="#84C0FF"/>
<path d="M660.671 195.188H561.199V236.461H660.671V195.188Z" fill="#E0E0E0"/>
<path d="M460.543 218.952V227.599H456.955V218.868L447.028 202.579H450.891L458.893 215.735L466.942 202.579H470.53L460.543 218.952Z" fill="#263238"/>
<path d="M470.984 215.101C470.984 207.769 476.63 202.304 484.308 202.304C491.986 202.304 497.536 207.734 497.536 215.101C497.536 222.468 491.879 227.886 484.272 227.886C476.665 227.886 470.984 222.456 470.984 215.101ZM493.995 215.101C494.026 213.17 493.481 211.274 492.43 209.653C491.379 208.033 489.87 206.763 488.094 206.004C486.318 205.245 484.356 205.032 482.459 205.393C480.562 205.753 478.815 206.67 477.441 208.027C476.066 209.384 475.128 211.12 474.744 213.013C474.36 214.905 474.548 216.869 475.285 218.655C476.022 220.44 477.273 221.965 478.88 223.036C480.487 224.107 482.377 224.676 484.308 224.669C485.577 224.703 486.84 224.48 488.02 224.012C489.2 223.544 490.274 222.842 491.175 221.947C492.076 221.053 492.786 219.985 493.263 218.808C493.739 217.631 493.972 216.37 493.948 215.101H493.995Z" fill="#263238"/>
<path d="M502.822 216.811V202.59H506.41V216.667C506.41 222.205 508.946 224.704 513.443 224.704C517.94 224.704 520.523 222.205 520.523 216.667V202.59H523.992V216.811C523.992 224.059 520.021 227.886 513.419 227.886C506.817 227.886 502.822 224.059 502.822 216.811Z" fill="#263238"/>
<path d="M548.031 227.599L542.637 219.92C542.135 219.92 541.597 219.992 541.058 219.992H534.875V227.599H531.287V202.59H541.034C547.541 202.59 551.476 205.879 551.476 211.309C551.557 213.047 551.061 214.764 550.066 216.191C549.072 217.619 547.633 218.677 545.974 219.203L551.954 227.575L548.031 227.599ZM547.923 211.309C547.923 207.721 545.531 205.7 540.951 205.7H534.875V216.954H540.951C545.531 216.954 547.923 214.885 547.923 211.309V211.309Z" fill="#263238"/>
<path d="M573.41 207.303H565.396L566.365 202.59H588.168L587.2 207.303H579.234L575.156 227.635H569.367L573.41 207.303Z" fill="#263238"/>
<path d="M596.098 207.231L595.034 212.661H606.647L605.75 217.17H594.101L592.905 222.958H606.611L605.643 227.599H586.279L591.279 202.59H610.175L609.219 207.231H596.098Z" fill="#263238"/>
<path d="M625.507 214.993L632.372 227.599H626.117L621.692 219.095L614.109 227.599H607.185L619.145 214.634L612.674 202.59H618.858L623.032 210.627L630.327 202.59H636.893L625.507 214.993Z" fill="#263238"/>
<path d="M643.675 207.303H635.662L636.631 202.59H658.434L657.465 207.303H649.5L645.421 227.635H639.633L643.675 207.303Z" fill="#263238"/>
<path d="M225.433 112.005C231.041 112.005 235.587 107.459 235.587 101.851C235.587 96.2434 231.041 91.6973 225.433 91.6973C219.825 91.6973 215.279 96.2434 215.279 101.851C215.279 107.459 219.825 112.005 225.433 112.005Z" fill="#E0E0E0"/>
<path d="M716.188 52.3012C716.188 54.2387 716.284 173.097 716.428 363.692V363.931H716.188H508.156L508.371 363.835L491.687 381.536L491.484 381.739L491.281 381.548L471.977 363.859L472.169 363.931H190.14H182.533V363.62C182.533 253.373 182.533 148.161 182.533 52.2294V51.9424H182.82L716.164 52.2294L182.844 52.6241L183.131 52.3371C183.131 148.268 183.131 253.48 183.131 363.728L182.82 363.417H472.252L472.336 363.5L491.627 381.189H491.221L507.965 363.488L508.049 363.405H508.168H716.2L715.961 363.644C716.093 173.061 716.188 54.2387 716.188 52.3012Z" fill="#263238"/>
<path d="M198.177 463.366C193.47 460.424 188.151 458.599 182.629 458.032C180.094 457.769 177.319 457.84 175.286 459.371C175.052 459.509 174.858 459.707 174.726 459.945C174.594 460.182 174.527 460.451 174.533 460.723C174.655 461.102 174.91 461.425 175.25 461.632C178.546 463.983 182.423 465.388 186.46 465.694C190.497 465.999 194.541 465.194 198.154 463.366" fill="#00C1D4"/>
<path d="M197.783 462.936C194.188 460.291 190.83 457.338 187.748 454.109C184.667 450.856 182.5 446.845 181.469 442.484C181.264 441.839 181.202 441.158 181.287 440.487C181.371 439.815 181.601 439.171 181.96 438.597C189.961 444.84 196.24 452.949 197.783 462.936Z" fill="#00C1D4"/>
<path d="M198.093 463.306C197.355 458.946 197.42 454.487 198.285 450.15C199.174 445.775 201.675 441.895 205.293 439.279C206.681 442.508 206.083 446.228 205.114 449.6C203.604 454.826 201.253 459.77 198.153 464.239" fill="#00C1D4"/>
<path d="M205.927 477.348C201.223 478.105 196.872 480.308 193.477 483.651C189.884 486.889 187.378 491.158 186.301 495.874C190.965 495.587 194.924 492.286 197.794 488.614C200.665 484.942 202.65 480.876 205.808 477.419" fill="#00C1D4"/>
<path d="M207.638 479.596C205.769 474.838 205.119 469.688 205.745 464.615C206.372 459.542 208.256 454.705 211.226 450.545C213.941 460.185 212.936 471.08 207.638 479.596Z" fill="#00C1D4"/>
<path d="M217.983 491.927C213.638 491.659 209.309 492.673 205.535 494.844C201.761 497.015 198.707 500.247 196.754 504.138C196.585 504.38 196.482 504.662 196.457 504.956C196.432 505.25 196.485 505.546 196.611 505.813C196.795 505.99 197.02 506.119 197.266 506.19C197.512 506.261 197.772 506.271 198.022 506.219C202.208 505.956 205.916 503.432 208.977 500.562C212.039 497.692 214.694 494.391 218.079 491.915" fill="#00C1D4"/>
<path d="M217.672 491.245C215.438 484.074 215.301 476.413 217.278 469.167C218.055 466.32 219.359 463.33 221.99 461.991C222.094 461.922 222.212 461.876 222.336 461.855C222.46 461.834 222.586 461.84 222.707 461.871C222.92 461.982 223.083 462.171 223.162 462.397C224.044 464.388 224.426 466.564 224.274 468.736C224.117 470.896 223.785 473.04 223.282 475.147C222.456 479.07 222.014 483.28 219.861 486.664C219.353 487.475 218.897 488.318 218.498 489.188C218.091 490.049 218.091 490.384 217.708 491.042" fill="#00C1D4"/>
<path d="M245.06 495.335C244.141 491.304 244.111 487.121 244.972 483.077C245.833 479.033 247.565 475.225 250.048 471.918C250.406 471.451 250.885 470.949 251.471 471.009C252.368 471.092 252.595 472.289 252.559 473.186C252.185 481.126 249.586 488.801 245.06 495.335" fill="#00C1D4"/>
<path d="M247.572 497.022C252.365 498.152 257.345 498.229 262.171 497.248C266.996 496.267 271.551 494.252 275.523 491.341C270.845 488.996 265.501 488.337 260.393 489.475C255.346 490.671 250.718 492.896 247.572 497.022Z" fill="#00C1D4"/>
<path d="M249.617 491.879C254.868 483.315 264.938 477.718 274.972 477.216C273.776 481.294 270.463 484.464 266.684 486.389C262.811 488.142 258.714 489.35 254.509 489.977C252.882 490.3 250.658 490.647 249.617 491.915" fill="#00C1D4"/>
<path d="M245.575 466.93C247.164 462.107 248.255 457.134 248.828 452.088C249.382 447 248.345 441.865 245.862 437.389C240.958 446.885 240.456 457.984 245.431 467.445" fill="#00C1D4"/>
<path d="M262.104 458.582C267.844 448.141 279.553 439.817 291.406 438.645C286.837 450.031 274.363 458.822 262.104 458.582Z" fill="#00C1D4"/>
<path d="M258.491 460.615C267.055 461.919 274.35 467.396 282.411 470.709C284.09 471.513 285.948 471.867 287.805 471.738C288.667 471.725 289.505 471.449 290.205 470.946C290.906 470.444 291.435 469.739 291.723 468.926C292.011 468.113 292.043 467.232 291.815 466.401C291.587 465.569 291.11 464.827 290.448 464.275C289.316 463.221 287.981 462.407 286.525 461.883C277.807 458.295 268.466 458.163 259.293 460.364" fill="#00C1D4"/>
<path d="M253.552 466.62C255.489 467.182 256.147 468.186 257.69 469.49C262.921 473.94 269.11 477.12 275.773 478.783C276.467 478.95 277.376 479.022 277.711 478.4C278.046 477.778 277.639 477.204 277.245 476.702C274.335 473.299 270.563 470.741 266.325 469.299C262.151 467.744 258.539 465.866 253.552 466.261" fill="#00C1D4"/>
<path d="M247.955 430.356C251.462 433.596 255.609 436.065 260.129 437.604C264.648 439.143 269.44 439.717 274.195 439.29C274.634 439.3 275.06 439.147 275.391 438.86C276.049 438.142 275.26 437.03 274.494 436.468C266.768 430.488 257.427 427.964 247.955 430.392" fill="#00C1D4"/>
<path d="M254.58 427.941C259.225 424.52 264.613 422.248 270.305 421.308C275.996 420.369 281.829 420.789 287.327 422.535C283.04 426.501 277.541 428.907 271.719 429.364C265.965 429.883 260.165 429.393 254.58 427.917" fill="#00C1D4"/>
<path d="M251.95 411.268C251.184 403.566 251.675 397.49 251.148 389.74C251.148 389.118 250.969 388.377 250.395 388.162C249.582 387.851 248.912 388.831 248.649 389.657C247.525 393.243 247.237 397.039 247.807 400.754C248.378 404.469 249.79 408.004 251.938 411.089" fill="#00C1D4"/>
<path d="M251.387 412.13C256.418 408.88 260.756 404.664 264.148 399.727C266.672 396.271 268.789 392.144 268.214 387.911C266.442 387.959 264.701 388.393 263.113 389.182C261.525 389.971 260.127 391.096 259.017 392.479C256.813 395.267 255.216 398.486 254.329 401.928C253.3 405.312 252.583 408.793 251.387 412.13" fill="#00C1D4"/>
<path d="M263.921 408.637C275.407 404.388 286.039 398.118 295.316 390.123C291.573 388.616 287.279 389.525 283.524 391.032C275.014 394.256 267.984 400.491 263.766 408.553" fill="#00C1D4"/>
<path d="M254.915 416.34C260.697 417.163 266.564 417.191 272.353 416.423C277.998 415.478 283.344 413.242 288.618 411.017C289.079 410.885 289.475 410.587 289.731 410.18C289.813 409.934 289.819 409.669 289.749 409.42C289.678 409.17 289.535 408.948 289.336 408.781C288.931 408.46 288.455 408.238 287.949 408.135C282.208 406.52 275.989 407.274 270.355 409.188C264.971 411.031 259.796 413.436 254.915 416.363" fill="#00C1D4"/>
<path d="M221.822 430.62C217.864 422.642 218.127 413.326 221.535 405.097C223.927 408.769 224.238 413.469 223.796 417.787C223.353 422.104 222.026 426.637 221.942 431.026" fill="#00C1D4"/>
<path d="M206.023 422.654C201.071 422.592 196.161 423.562 191.606 425.504C187.051 427.446 182.951 430.317 179.567 433.932C184.556 434.524 189.607 433.585 194.051 431.241C198.461 428.9 202.62 426.115 206.465 422.929" fill="#00C1D4"/>
<path d="M195.402 419.102C190.618 418.72 185.918 418.122 181.278 419.545C178.934 420.205 176.76 421.361 174.902 422.936C173.045 424.51 171.548 426.466 170.514 428.67C175.071 429.03 179.641 428.167 183.753 426.171C187.838 424.164 191.737 421.799 195.402 419.102" fill="#00C1D4"/>
<path d="M211.13 419.27C206.776 416.423 202.315 413.517 197.256 412.345C192.197 411.173 186.337 412.034 182.809 415.849C186.911 418.241 191.874 418.54 196.622 418.528C201.37 418.516 207.195 418.528 211.668 420.059" fill="#00C1D4"/>
<path d="M211.153 419.497C203.726 412.201 200.904 399.105 203.894 389.13C209.756 398.107 212.322 408.839 211.153 419.497" fill="#00C1D4"/>
<path d="M231.581 398.83C232.98 395.577 233.973 392.156 235.169 388.843C236.316 385.477 238.08 382.354 240.372 379.634C242.691 376.895 245.994 375.177 249.569 374.85C248.425 379.874 246.246 384.605 243.171 388.74C240.097 392.875 236.194 396.323 231.713 398.866" fill="#00C1D4"/>
<path d="M227.886 403.136C225.565 399.942 222.886 395.613 219.741 393.233C216.595 390.853 212.565 389.406 208.666 390.327C210.654 393.808 213.426 396.779 216.762 399.002C220.099 401.226 223.907 402.641 227.886 403.136" fill="#00C1D4"/>
<path d="M228.616 399.093C226.951 395.289 225.723 391.309 224.956 387.229C224.196 383.112 224.85 378.86 226.81 375.161C230.888 382.875 232.204 391.14 228.831 399.189" fill="#00C1D4"/>
<path d="M231.617 375.161C233.925 367.519 240.922 361.897 248.469 359.314C249.408 358.931 250.425 358.779 251.435 358.871C251.935 358.929 252.408 359.132 252.795 359.455C253.182 359.778 253.466 360.207 253.612 360.689C253.887 361.993 252.81 363.153 251.806 364.014C245.901 369.06 239.033 372.852 231.617 375.161Z" fill="#00C1D4"/>
<path d="M231.701 368.918C231.988 363.991 232.299 358.991 233.901 354.327C235.504 349.663 238.59 345.273 243.087 343.228C243.852 348.203 241.651 353.155 239.008 357.436C236.365 361.718 233.172 365.808 231.581 370.592" fill="#00C1D4"/>
<path d="M231.582 372.303C229.668 366.741 229.477 359.661 226.14 354.817C223.748 351.421 220.076 349.112 218.067 345.524C216.849 348.968 217.016 352.75 218.533 356.073C220.054 359.356 222.143 362.344 224.705 364.9C227.168 367.531 229.285 369.516 231.582 372.303" fill="#00C1D4"/>
<path d="M231.617 536.298C231.462 536.298 231.342 499.15 231.33 453.332C231.318 407.513 231.426 370.365 231.581 370.365C231.737 370.365 231.856 407.501 231.868 453.332C231.88 499.162 231.761 536.298 231.617 536.298Z" fill="#263238"/>
<path d="M264.076 425.022C263.626 425.238 263.158 425.414 262.677 425.549L258.838 426.84C255.597 427.941 251.148 429.543 246.316 431.529C241.484 433.514 237.011 435.248 234.44 437.509C233.416 438.364 232.598 439.439 232.048 440.654C231.677 441.527 231.617 442.065 231.569 442.053C231.521 442.042 231.569 441.922 231.569 441.671C231.628 441.3 231.72 440.936 231.844 440.582C232.328 439.288 233.125 438.133 234.164 437.222C235.719 435.913 237.455 434.837 239.319 434.028C241.376 433.06 243.661 432.055 246.089 431.062C250.932 429.077 255.417 427.534 258.694 426.517C260.333 426.003 261.672 425.632 262.593 425.381C263.076 425.216 263.572 425.096 264.076 425.022V425.022Z" fill="#263238"/>
<path d="M274.721 398.878C274.721 398.878 274.59 399.045 274.326 399.297L273.13 400.421L268.681 404.463L253.875 417.619C248.086 422.762 243.111 427.678 239.631 431.385C237.896 433.227 236.533 434.758 235.6 435.834L234.524 437.03C234.406 437.179 234.274 437.315 234.129 437.437C234.129 437.437 234.225 437.258 234.44 436.959C234.655 436.66 234.99 436.217 235.445 435.667C236.33 434.555 237.645 432.976 239.355 431.086C243.84 426.226 248.579 421.607 253.552 417.248C259.353 412.118 264.627 407.501 268.466 404.176L273.035 400.265L274.291 399.225C274.42 399.093 274.565 398.977 274.721 398.878V398.878Z" fill="#263238"/>
<path d="M247.632 422.882C247.476 422.822 248.684 420.023 249.892 416.507C251.1 412.991 251.674 410.001 251.83 410.025C251.704 412.303 251.22 414.547 250.394 416.674C249.883 418.195 249.284 419.684 248.6 421.135C248.362 421.76 248.036 422.348 247.632 422.882V422.882Z" fill="#263238"/>
<path d="M231.653 445.366C231.318 445.057 231.017 444.712 230.756 444.338L228.436 441.407C226.522 438.932 223.867 435.511 220.901 431.768C217.935 428.024 215.196 424.663 213.223 422.2L210.89 419.305C210.583 418.967 210.311 418.598 210.077 418.205C210.434 418.492 210.759 418.817 211.046 419.174C211.644 419.82 212.481 420.764 213.51 421.949C215.567 424.341 218.294 427.642 221.32 431.397C224.345 435.152 226.905 438.573 228.747 441.144C229.668 442.412 230.397 443.453 230.888 444.17C231.177 444.546 231.433 444.946 231.653 445.366V445.366Z" fill="#263238"/>
<path d="M224.525 436.229C223.089 434.639 222.067 432.721 221.547 430.643C220.988 428.825 220.761 426.921 220.877 425.022H221.104C221.009 425.453 220.925 425.68 220.889 425.68C220.853 425.68 220.889 425.429 220.889 424.986H221.128C221.246 426.841 221.563 428.677 222.073 430.464C222.754 432.441 223.573 434.367 224.525 436.229V436.229Z" fill="#263238"/>
<path d="M215.34 424.676C214.702 424.187 214.002 423.785 213.259 423.48C211.387 422.922 209.419 422.763 207.482 423.013C205.517 423.162 203.569 423.478 201.658 423.958C200.873 424.199 200.074 424.391 199.266 424.532C199.977 424.099 200.752 423.78 201.562 423.587C203.473 423.003 205.442 422.63 207.434 422.475C209.451 422.213 211.5 422.434 213.414 423.121C214.217 423.401 214.897 423.95 215.34 424.676V424.676Z" fill="#263238"/>
<path d="M213.163 421.865C213.163 421.949 211.967 421.387 209.969 420.669C204.801 418.905 199.268 418.493 193.895 419.473C191.838 419.844 190.594 420.227 190.57 420.131C190.834 419.971 191.12 419.85 191.419 419.772C192.202 419.498 193.001 419.274 193.811 419.102C196.511 418.504 199.284 418.311 202.04 418.528C204.797 418.736 207.508 419.344 210.089 420.334C210.87 420.637 211.633 420.984 212.373 421.375C212.657 421.502 212.923 421.667 213.163 421.865V421.865Z" fill="#263238"/>
<path d="M231.582 410.024C230.636 407.381 229.857 404.68 229.249 401.939C228.477 399.245 227.873 396.505 227.443 393.735C229.174 399.069 230.556 404.511 231.582 410.024V410.024Z" fill="#263238"/>
<path d="M231.725 410.025C230.985 408.348 230.122 406.729 229.142 405.181C228.057 403.715 226.782 402.4 225.351 401.27C225.894 401.4 226.399 401.658 226.822 402.024C227.896 402.816 228.829 403.782 229.584 404.882C230.741 406.376 231.48 408.151 231.725 410.025V410.025Z" fill="#263238"/>
<path d="M231.618 516.493C231.618 516.493 231.45 515.596 231.032 514.017C230.413 511.8 229.58 509.65 228.544 507.594C224.974 500.868 220.552 494.629 215.388 489.033C212.446 485.672 209.599 482.502 207.172 479.465C205.001 476.792 203.037 473.957 201.299 470.985C200.131 468.981 199.139 466.881 198.333 464.706C198.058 463.929 197.867 463.319 197.747 462.9C197.676 462.695 197.628 462.482 197.604 462.266C197.604 462.266 197.914 463.115 198.524 464.658C199.408 466.787 200.443 468.849 201.622 470.829C203.417 473.757 205.415 476.555 207.602 479.201C209.994 482.203 212.9 485.349 215.843 488.769C221.059 494.39 225.485 500.695 228.999 507.511C230.029 509.599 230.831 511.792 231.391 514.053C231.532 514.669 231.639 515.291 231.713 515.919C231.698 516.112 231.666 516.304 231.618 516.493V516.493Z" fill="#263238"/>
<path d="M260.943 483.363C260.452 483.684 259.941 483.972 259.412 484.224C258.023 485.004 256.692 485.883 255.429 486.855C253.561 488.311 251.81 489.911 250.191 491.639C248.349 493.577 246.459 495.825 244.522 498.241C240.659 503.097 237.047 507.379 234.882 510.811C233.782 512.51 232.98 513.945 232.49 514.949C232 515.954 231.677 516.504 231.641 516.492C231.605 516.48 231.641 516.337 231.784 516.05C231.928 515.763 232.048 515.368 232.299 514.854C232.971 513.392 233.733 511.974 234.583 510.608C237.531 506.197 240.725 501.957 244.151 497.906C246.089 495.514 248.002 493.23 249.88 491.293C251.53 489.547 253.326 487.947 255.25 486.509C256.543 485.546 257.92 484.702 259.364 483.985C259.866 483.734 260.285 483.578 260.56 483.459C260.835 483.339 260.943 483.339 260.943 483.363Z" fill="#263238"/>
<path d="M261.517 494.103C260.452 494.351 259.368 494.511 258.276 494.582C255.663 494.842 253.08 495.351 250.562 496.101C248.076 496.899 245.743 498.112 243.661 499.689C242.07 500.885 241.329 501.925 241.269 501.865C241.209 501.805 241.389 501.578 241.748 501.124C242.25 500.491 242.815 499.91 243.434 499.39C245.493 497.672 247.865 496.368 250.419 495.55C252.969 494.793 255.597 494.327 258.252 494.163C259.337 494.052 260.429 494.032 261.517 494.103V494.103Z" fill="#263238"/>
<path d="M242.202 500.729C242.034 500.634 243.493 498.397 244.594 495.383C245.694 492.369 245.909 489.69 246.101 489.714C246.203 490.292 246.203 490.883 246.101 491.46C245.94 492.86 245.619 494.236 245.144 495.562C244.657 496.883 244.028 498.146 243.266 499.33C242.988 499.85 242.629 500.323 242.202 500.729Z" fill="#263238"/>
<path d="M270.452 454.48C270.284 454.585 270.108 454.677 269.926 454.755L268.407 455.449C267.737 455.736 266.924 456.095 266.015 456.585C265.106 457.075 264.029 457.542 262.917 458.211L261.147 459.216C260.525 459.575 259.951 459.994 259.269 460.412C257.966 461.201 256.65 462.182 255.263 463.175C249.274 467.631 244.051 473.032 239.798 479.165C238.853 480.601 237.921 481.94 237.179 483.28C236.796 483.937 236.39 484.559 236.055 485.181C235.72 485.803 235.421 486.377 235.11 486.987C234.488 488.183 234.034 489.212 233.591 490.157C233.149 491.102 232.802 491.903 232.539 492.549C232.275 493.195 232.072 493.685 231.893 494.103C231.827 494.287 231.743 494.463 231.642 494.63C231.665 494.432 231.717 494.238 231.797 494.056L232.347 492.477C232.624 491.634 232.947 490.808 233.316 490.001C233.735 489.044 234.165 487.944 234.775 486.784L235.696 484.954C236.019 484.32 236.414 483.686 236.784 483.017C237.526 481.665 238.447 480.302 239.392 478.854C243.626 472.643 248.883 467.196 254.94 462.744C256.351 461.752 257.679 460.783 259.006 459.994C259.664 459.599 260.286 459.18 260.908 458.798L262.714 457.817C263.838 457.171 264.926 456.705 265.871 456.25C266.65 455.858 267.448 455.507 268.263 455.198L269.83 454.6C270.028 454.52 270.239 454.48 270.452 454.48Z" fill="#263238"/>
<path d="M247.237 470.028C247.449 469.276 247.893 468.611 248.505 468.126C249.939 466.892 251.757 466.194 253.648 466.153C255.506 466.149 257.347 466.511 259.066 467.217C259.793 467.446 260.482 467.78 261.111 468.21C260.372 468.064 259.647 467.852 258.946 467.576C257.247 466.998 255.466 466.699 253.672 466.691C251.89 466.731 250.168 467.339 248.756 468.425C248.211 468.921 247.703 469.457 247.237 470.028Z" fill="#263238"/>
<path d="M243.769 473.616C244.453 472.088 244.943 470.481 245.228 468.832C245.331 467.174 245.219 465.509 244.893 463.88C245.207 464.281 245.417 464.754 245.503 465.256C246.14 467.668 245.841 470.231 244.666 472.432C244.211 473.245 243.816 473.676 243.769 473.616Z" fill="#263238"/>
<path d="M205.963 521.814C206.764 536.011 211.034 550.447 217.612 565.05H246.232C252.511 550.59 256.494 536.178 257.2 521.814H205.963Z" fill="#455A64"/>
<path d="M252.559 544.79C252.559 544.933 243.134 545.053 231.521 545.053C219.908 545.053 210.472 544.933 210.472 544.79C210.472 544.646 219.896 544.515 231.521 544.515C243.146 544.515 252.559 544.634 252.559 544.79Z" fill="#FAFAFA"/>
<path d="M251.926 549.933C251.926 550.076 243.087 550.196 232.192 550.196C221.296 550.196 212.47 550.076 212.47 549.933C212.47 549.789 221.296 549.658 232.192 549.658C243.087 549.658 251.926 549.777 251.926 549.933Z" fill="#FAFAFA"/>
<path d="M834.438 565.229C834.438 565.409 665.909 565.54 458.092 565.54C250.275 565.54 81.7109 565.409 81.7109 565.229C81.7109 565.05 250.191 564.918 458.092 564.918C665.993 564.918 834.438 565.062 834.438 565.229Z" fill="#263238"/>
<path d="M382.361 534.026H352.354V565.062H382.361V534.026Z" fill="#455A64"/>
<path d="M369.923 534.875C369.923 534.875 369.589 535.054 368.991 535.389C368.149 535.872 367.349 536.425 366.599 537.04C364.163 539.128 362.135 541.651 360.619 544.479C359.674 546.105 358.92 547.72 358.227 549.191C357.603 550.494 356.797 551.702 355.835 552.779C355.163 553.519 354.349 554.117 353.443 554.537C353.118 554.702 352.772 554.819 352.414 554.884C352.414 554.884 352.785 554.764 353.395 554.454C354.249 554 355.011 553.392 355.643 552.66C357.354 550.854 358.49 547.577 360.427 544.288C361.957 541.431 364.029 538.9 366.527 536.836C367.294 536.229 368.115 535.693 368.979 535.234C369.286 535.095 369.602 534.975 369.923 534.875V534.875Z" fill="#263238"/>
<path d="M369.445 554.788L370.019 554.31C370.39 553.999 370.94 553.533 371.598 552.875C371.933 552.552 372.292 552.181 372.662 551.751C373.109 551.353 373.391 550.803 373.452 550.208C373.416 550.045 373.347 549.892 373.249 549.757C373.151 549.623 373.026 549.51 372.882 549.427C372.738 549.344 372.578 549.292 372.412 549.274C372.247 549.256 372.079 549.272 371.921 549.323C371.182 549.579 370.494 549.964 369.888 550.459C368.373 551.448 366.987 552.621 365.761 553.951C365.096 554.696 364.544 555.534 364.123 556.439C363.91 556.903 363.852 557.422 363.955 557.922C364.024 558.166 364.152 558.39 364.327 558.573C364.502 558.756 364.719 558.894 364.96 558.974C366.029 559.272 367.168 559.183 368.177 558.723C369.252 558.281 370.252 557.675 371.143 556.929C373.116 555.458 374.657 553.484 375.604 551.212C376.034 550.068 376.193 548.84 376.071 547.624C376.057 547.035 375.875 546.462 375.546 545.973C375.218 545.484 374.757 545.098 374.217 544.862C373.655 544.76 373.079 544.769 372.52 544.89C371.962 545.011 371.433 545.241 370.964 545.567C369.994 546.13 369.088 546.795 368.261 547.553C365.044 550.543 363.046 554.035 360.93 556.606C359.353 558.73 357.358 560.508 355.069 561.833C354.44 562.172 353.779 562.449 353.096 562.658C352.857 562.734 352.613 562.794 352.366 562.838L352.546 562.778L353.072 562.61C353.748 562.381 354.4 562.089 355.021 561.737C357.28 560.397 359.244 558.616 360.798 556.499C362.891 553.927 364.864 550.411 368.118 547.385C368.947 546.61 369.862 545.932 370.844 545.364C371.34 545.018 371.901 544.774 372.493 544.649C373.084 544.524 373.695 544.519 374.289 544.634C374.905 544.835 375.423 545.263 375.736 545.83C376.046 546.38 376.241 546.986 376.31 547.612C376.448 548.884 376.288 550.169 375.844 551.368C374.873 553.679 373.304 555.689 371.299 557.192C370.385 557.95 369.36 558.563 368.261 559.01C367.198 559.49 365.999 559.579 364.876 559.261C364.595 559.175 364.338 559.021 364.13 558.812C363.921 558.604 363.767 558.347 363.68 558.065C363.567 557.517 363.634 556.946 363.872 556.439C364.304 555.514 364.872 554.659 365.558 553.903C366.803 552.567 368.209 551.389 369.744 550.399C370.365 549.879 371.074 549.474 371.837 549.203C372.016 549.15 372.205 549.134 372.39 549.158C372.576 549.182 372.754 549.244 372.914 549.341C373.074 549.438 373.212 549.567 373.319 549.721C373.426 549.874 373.5 550.048 373.535 550.232C373.511 550.547 373.424 550.853 373.281 551.135C373.137 551.416 372.939 551.666 372.698 551.87C372.315 552.293 371.957 552.664 371.622 552.982C370.951 553.647 370.222 554.252 369.445 554.788Z" fill="#263238"/>
<path d="M382.17 539.396C382.17 539.396 382.062 539.803 381.895 540.592C381.662 541.657 381.494 542.736 381.393 543.821C381.237 545.185 381.13 546.835 380.866 548.605C380.059 554.226 377.079 559.307 372.566 562.754C371.392 563.686 370.091 564.447 368.703 565.014C368.703 565.014 368.787 564.943 368.966 564.847L369.756 564.428C373.853 562.112 377.091 558.534 378.989 554.226C380.771 550.387 380.855 546.488 381.213 543.761C381.335 542.673 381.531 541.594 381.799 540.532C381.893 540.144 382.017 539.764 382.17 539.396V539.396Z" fill="#263238"/>
<path d="M358.8 534.779C358.822 534.962 358.822 535.147 358.8 535.33C358.746 535.828 358.666 536.323 358.561 536.813C357.87 540.068 356.279 543.064 353.969 545.46C353.624 545.822 353.256 546.161 352.868 546.476C352.736 546.604 352.587 546.712 352.426 546.799C352.426 546.799 352.988 546.261 353.837 545.34C354.936 544.126 355.88 542.78 356.648 541.334C357.413 539.887 357.999 538.353 358.394 536.765C358.717 535.545 358.8 534.767 358.8 534.779Z" fill="#263238"/>
<path d="M382.361 495.67H352.354V525.678H382.361V495.67Z" fill="#455A64"/>
<path d="M365.247 496.926C365.223 497.187 365.166 497.444 365.079 497.691C364.908 498.381 364.684 499.057 364.41 499.712C363.511 501.895 362.232 503.899 360.63 505.633C359.027 507.361 357.132 508.794 355.033 509.866C354.399 510.189 353.743 510.469 353.072 510.704L352.33 510.931C352.553 510.799 352.79 510.691 353.036 510.608C353.502 510.429 354.16 510.118 354.949 509.711C357.004 508.608 358.863 507.174 360.451 505.465C362.031 503.754 363.313 501.789 364.242 499.653C364.531 499.006 364.782 498.343 364.996 497.667C365.062 497.414 365.146 497.167 365.247 496.926Z" fill="#263238"/>
<path d="M371.478 506.649C370.969 507.617 370.364 508.53 369.672 509.376C367.822 511.721 365.505 513.656 362.867 515.057C361.995 515.52 361.092 515.919 360.164 516.253C359.176 516.735 358.053 516.861 356.982 516.612C356.7 516.505 356.453 516.32 356.271 516.079C356.089 515.837 355.979 515.55 355.954 515.249C355.929 514.647 356.061 514.05 356.337 513.514C356.875 512.422 357.511 511.381 358.238 510.405C361.513 505.989 366.352 502.994 371.765 502.033C372.473 501.907 373.188 501.823 373.906 501.782C374.615 501.71 375.331 501.734 376.035 501.853C376.757 501.965 377.41 502.346 377.864 502.918C378.271 503.502 378.499 504.192 378.522 504.903C378.481 507.585 377.42 510.151 375.556 512.079C373.911 513.788 371.985 515.204 369.863 516.265C368.043 517.216 366.17 518.062 364.254 518.801C360.75 520.176 357.832 521.049 355.822 521.659L353.49 522.341C352.964 522.496 352.677 522.556 352.677 522.556L353.478 522.293L355.786 521.563C357.796 520.93 360.702 520.033 364.158 518.645C366.061 517.888 367.921 517.03 369.732 516.074C371.825 515.022 373.723 513.618 375.341 511.924C377.152 510.058 378.187 507.574 378.235 504.975C378.222 504.315 378.014 503.675 377.637 503.133C377.216 502.608 376.615 502.259 375.951 502.152C375.267 502.042 374.571 502.022 373.882 502.093C370.838 502.28 367.873 503.134 365.196 504.595C362.519 506.057 360.197 508.089 358.394 510.548C357.669 511.512 357.037 512.541 356.504 513.622C356.24 514.118 356.108 514.674 356.121 515.237C356.146 515.499 356.243 515.75 356.402 515.961C356.56 516.172 356.773 516.335 357.018 516.433C358.041 516.667 359.113 516.545 360.056 516.086C360.983 515.757 361.882 515.357 362.747 514.89C365.379 513.517 367.7 511.615 369.564 509.304C370.222 508.491 370.677 507.809 370.987 507.355C371.298 506.9 371.478 506.649 371.478 506.649Z" fill="#263238"/>
<path d="M382.123 515.117C382.123 515.117 382.123 515.189 381.991 515.309L381.584 515.799C381.068 516.405 380.521 516.983 379.946 517.533C376.16 521.206 371.494 523.846 366.395 525.199C365.632 525.414 364.857 525.586 364.075 525.714L363.441 525.809H363.214C363.214 525.809 363.286 525.809 363.429 525.738L364.063 525.594C364.601 525.487 365.391 525.283 366.359 525.008C368.858 524.279 371.265 523.268 373.535 521.994C375.805 520.706 377.916 519.156 379.826 517.378C380.556 516.696 381.13 516.122 381.513 515.715L381.955 515.249L382.123 515.117Z" fill="#263238"/>
<path d="M633.641 495.67H603.634V525.678H633.641V495.67Z" fill="#455A64"/>
<path d="M616.526 496.926C616.502 497.187 616.446 497.444 616.359 497.691C616.187 498.381 615.964 499.057 615.689 499.712C614.791 501.895 613.511 503.899 611.91 505.633C610.306 507.361 608.412 508.794 606.312 509.866C605.678 510.189 605.023 510.469 604.351 510.704L603.609 510.931C603.833 510.799 604.069 510.691 604.315 510.608C607.139 509.467 609.672 507.71 611.73 505.465C613.311 503.754 614.592 501.789 615.522 499.653C615.81 499.006 616.061 498.343 616.275 497.667C616.341 497.414 616.425 497.167 616.526 496.926Z" fill="#263238"/>
<path d="M622.758 506.649C622.249 507.617 621.644 508.53 620.952 509.376C619.102 511.721 616.785 513.656 614.147 515.057C613.276 515.522 612.373 515.922 611.444 516.253C610.456 516.735 609.333 516.861 608.262 516.612C607.98 516.505 607.733 516.32 607.551 516.079C607.369 515.837 607.259 515.55 607.234 515.249C607.209 514.647 607.341 514.05 607.617 513.514C608.155 512.422 608.791 511.381 609.518 510.405C612.793 505.989 617.633 502.994 623.045 502.033C623.753 501.908 624.468 501.824 625.186 501.782C625.895 501.71 626.611 501.734 627.315 501.853C628.037 501.965 628.69 502.346 629.145 502.918C629.551 503.502 629.78 504.192 629.802 504.903C629.761 507.585 628.7 510.151 626.836 512.079C625.191 513.788 623.265 515.204 621.143 516.265C619.323 517.216 617.45 518.062 615.534 518.801C612.03 520.176 609.112 521.049 607.162 521.659L604.83 522.341C604.304 522.496 604.017 522.556 604.017 522.556L604.818 522.293L607.126 521.563C609.135 520.93 612.042 520.033 615.498 518.645C617.401 517.888 619.261 517.03 621.072 516.074C623.174 515.009 625.079 513.594 626.705 511.888C628.513 510.021 629.543 507.537 629.587 504.939C629.573 504.28 629.365 503.639 628.989 503.097C628.57 502.57 627.968 502.22 627.303 502.116C626.619 502.006 625.923 501.986 625.234 502.057C622.19 502.244 619.224 503.098 616.548 504.559C613.871 506.021 611.549 508.053 609.745 510.512C609.021 511.476 608.388 512.505 607.856 513.586C607.592 514.083 607.46 514.639 607.473 515.201C607.498 515.463 607.595 515.714 607.754 515.925C607.912 516.136 608.125 516.299 608.37 516.397C609.393 516.631 610.465 516.509 611.408 516.05C612.335 515.724 613.235 515.324 614.099 514.854C616.731 513.481 619.052 511.579 620.916 509.269C621.574 508.455 622.028 507.774 622.339 507.319C622.65 506.865 622.758 506.649 622.758 506.649Z" fill="#263238"/>
<path d="M633.402 515.117C633.402 515.117 633.402 515.189 633.271 515.309L632.864 515.799C632.348 516.405 631.801 516.983 631.225 517.533C627.441 521.203 622.78 523.842 617.687 525.199C616.9 525.415 616.101 525.587 615.295 525.714L614.661 525.809H614.434C614.434 525.809 614.505 525.809 614.649 525.738L615.283 525.594C615.821 525.487 616.61 525.283 617.579 525.008C620.077 524.276 622.484 523.265 624.755 521.994C627.019 520.703 629.126 519.154 631.034 517.378C631.764 516.696 632.338 516.122 632.72 515.715L633.163 515.249L633.402 515.117Z" fill="#263238"/>
<path d="M633.641 534.026H603.634V565.062H633.641V534.026Z" fill="#455A64"/>
<path d="M621.203 534.875C621.203 534.875 620.868 535.054 620.27 535.389C619.428 535.872 618.628 536.425 617.878 537.04C615.445 539.132 613.418 541.653 611.898 544.479C610.965 546.105 610.199 547.72 609.506 549.191C608.882 550.494 608.076 551.702 607.114 552.779C606.462 553.515 605.669 554.113 604.782 554.537C604.457 554.702 604.111 554.819 603.753 554.884C603.753 554.884 604.124 554.764 604.734 554.454C605.592 554.001 606.359 553.393 606.994 552.66C608.704 550.854 609.829 547.577 611.718 544.288C613.248 541.431 615.32 538.9 617.818 536.836C618.585 536.229 619.406 535.693 620.27 535.234C620.573 535.096 620.885 534.976 621.203 534.875V534.875Z" fill="#263238"/>
<path d="M620.724 554.788L621.298 554.31C621.681 553.999 622.219 553.533 622.889 552.875C623.212 552.552 623.571 552.181 623.942 551.751C624.388 551.353 624.67 550.803 624.731 550.208C624.696 550.045 624.627 549.892 624.528 549.757C624.43 549.623 624.305 549.51 624.161 549.427C624.017 549.344 623.857 549.292 623.692 549.274C623.526 549.256 623.359 549.272 623.2 549.323C622.461 549.579 621.773 549.964 621.167 550.459C619.655 551.451 618.269 552.624 617.041 553.951C616.376 554.696 615.824 555.534 615.402 556.439C615.19 556.903 615.131 557.422 615.235 557.922C615.304 558.166 615.431 558.39 615.606 558.573C615.781 558.756 615.999 558.894 616.239 558.974C617.308 559.272 618.447 559.183 619.457 558.723C620.531 558.281 621.532 557.675 622.423 556.929C624.396 555.458 625.936 553.484 626.884 551.212C627.313 550.068 627.472 548.84 627.35 547.624C627.336 547.035 627.154 546.462 626.826 545.973C626.497 545.484 626.036 545.098 625.496 544.862C624.934 544.76 624.358 544.769 623.8 544.89C623.241 545.011 622.712 545.241 622.243 545.567C621.275 546.127 620.373 546.793 619.552 547.553C616.323 550.543 614.326 554.035 612.209 556.606C610.632 558.73 608.638 560.508 606.348 561.833C605.719 562.172 605.058 562.449 604.375 562.658C604.136 562.734 603.892 562.794 603.646 562.838L603.825 562.778L604.351 562.61C605.028 562.383 605.681 562.091 606.301 561.737C608.559 560.397 610.524 558.616 612.077 556.499C614.17 553.927 616.144 550.411 619.397 547.385C620.226 546.61 621.141 545.932 622.124 545.364C622.62 545.018 623.18 544.774 623.772 544.649C624.364 544.524 624.974 544.519 625.568 544.634C626.185 544.835 626.702 545.263 627.015 545.83C627.325 546.38 627.52 546.986 627.589 547.612C627.739 548.884 627.579 550.172 627.123 551.368C626.16 553.683 624.59 555.696 622.578 557.192C621.666 557.952 620.641 558.566 619.54 559.01C618.477 559.491 617.278 559.58 616.156 559.261C615.874 559.175 615.617 559.021 615.409 558.812C615.2 558.604 615.046 558.347 614.96 558.065C614.846 557.517 614.913 556.946 615.151 556.439C615.583 555.514 616.151 554.659 616.837 553.903C618.082 552.567 619.488 551.389 621.023 550.399C621.644 549.879 622.353 549.474 623.116 549.203C623.296 549.15 623.484 549.134 623.67 549.158C623.855 549.182 624.034 549.244 624.194 549.341C624.354 549.438 624.491 549.567 624.598 549.721C624.705 549.874 624.779 550.048 624.815 550.232C624.79 550.547 624.704 550.853 624.56 551.135C624.416 551.416 624.218 551.666 623.977 551.87C623.607 552.289 623.236 552.66 622.901 552.982C622.23 553.647 621.502 554.252 620.724 554.788V554.788Z" fill="#263238"/>
<path d="M633.45 539.396C633.45 539.396 633.343 539.803 633.175 540.592C632.948 541.658 632.78 542.736 632.673 543.821C632.517 545.185 632.41 546.835 632.147 548.605C631.87 550.582 631.318 552.51 630.508 554.334C629.017 557.634 626.728 560.512 623.846 562.706C622.674 563.641 621.373 564.402 619.983 564.966C620.062 564.897 620.151 564.841 620.246 564.799L621.036 564.38C625.134 562.062 628.376 558.485 630.281 554.179C632.051 550.339 632.135 546.44 632.494 543.714C632.615 542.625 632.811 541.546 633.08 540.484C633.182 540.115 633.306 539.751 633.45 539.396V539.396Z" fill="#263238"/>
<path d="M610.128 534.779C610.157 534.962 610.157 535.147 610.128 535.33C610.073 535.828 609.994 536.323 609.888 536.813C609.197 540.068 607.606 543.064 605.296 545.46C604.951 545.822 604.583 546.161 604.195 546.476C604.063 546.604 603.914 546.712 603.753 546.799C603.753 546.799 604.315 546.261 605.164 545.34C606.263 544.126 607.207 542.78 607.975 541.334C608.74 539.887 609.326 538.353 609.721 536.765C609.96 535.545 610.08 534.767 610.128 534.779Z" fill="#263238"/>
<path d="M641.009 525.678H345.692V535.054H641.009V525.678Z" fill="#455A64"/>
<path d="M641.057 535.054C641.057 535.222 574.954 535.365 493.434 535.365C411.915 535.365 345.788 535.222 345.788 535.054C345.788 534.887 411.879 534.743 493.434 534.743C574.989 534.743 641.057 534.887 641.057 535.054Z" fill="#263238"/>
<path d="M641.057 525.678C641.057 525.857 574.954 525.989 493.434 525.989C411.915 525.989 345.788 525.857 345.788 525.678C345.788 525.498 411.879 525.367 493.434 525.367C574.989 525.367 641.057 525.51 641.057 525.678Z" fill="#263238"/>
<path d="M640.973 488.47H345.31V496.914H640.973V488.47Z" fill="#455A64"/>
<path d="M637.588 496.926C637.588 497.093 572.25 497.237 491.676 497.237C411.101 497.237 345.764 497.093 345.764 496.926C345.764 496.758 411.089 496.615 491.676 496.615C572.262 496.615 637.588 496.746 637.588 496.926Z" fill="#263238"/>
<path d="M559.633 480.648L535.964 462.338L550.878 440.881L575.408 462.338C575.408 462.338 575.324 471.296 571.904 475.039C568.483 478.783 559.633 480.648 559.633 480.648Z" fill="#84685E"/>
<path d="M576.759 463.163L575.001 461.548C571.867 469.476 566.176 476.131 558.831 480.457L571.987 491.616L605.774 452.315C601.779 449.313 576.759 463.163 576.759 463.163Z" fill="#84C0FF"/>
<path d="M571.94 491.616L568.734 488.889L602.402 452.148C602.402 452.148 604.674 451.059 605.727 452.315L571.94 491.616Z" fill="#263238"/>
<path d="M577.106 462.362C577.298 462.529 576.556 463.558 576.365 465.041C576.174 466.524 576.544 467.708 576.365 467.815C576.185 467.923 575.277 466.691 575.54 464.909C575.803 463.127 576.963 462.158 577.106 462.362Z" fill="#263238"/>
<path d="M582.357 459.694C582.584 459.814 582.189 460.89 582.441 462.278C582.692 463.665 583.397 464.55 583.218 464.742C583.039 464.933 581.855 464.108 581.58 462.421C581.304 460.735 582.178 459.551 582.357 459.694Z" fill="#263238"/>
<path d="M589.305 461.656C589.197 461.872 588.001 461.309 587.379 459.922C586.757 458.535 587.104 457.267 587.379 457.315C587.654 457.363 587.702 458.415 588.229 459.551C588.755 460.687 589.448 461.393 589.305 461.656Z" fill="#263238"/>
<path d="M437.831 425.214C437.891 424.544 473.281 394.441 477.18 392.037C482.084 389.011 494.079 387.648 500.287 393.006C506.039 397.981 555.685 439.446 555.685 439.446L535.664 463.88L492.525 430.201C492.525 430.201 451.597 454.815 451.191 455.425C450.784 456.035 431.612 448.763 431.612 448.153C431.612 447.543 437.831 425.214 437.831 425.214Z" fill="#263238"/>
<path d="M400.492 304.31C399.726 298.988 399.418 293.611 399.571 288.236C399.737 282.834 401.241 277.557 403.949 272.879C404.379 272.186 407.752 267.641 408.541 267.88C409.092 268.048 406.688 272.437 406.879 272.987C408.508 278.346 408.466 284.074 406.759 289.408C405.231 294.593 403.129 299.591 400.492 304.31Z" fill="#263238"/>
<path d="M405.911 351.098C402.004 350.228 398.593 347.864 396.407 344.511C394.221 341.159 393.434 337.084 394.214 333.158L404.033 283.966C406.245 270.667 415.837 260.872 429.077 263.455L430.273 263.766C436.142 265.271 441.228 268.931 444.519 274.018C447.811 279.105 449.065 285.244 448.034 291.214C446.048 302.732 443.704 315.433 442.054 321.461C438.681 333.959 425.645 332.692 425.645 332.692C425.645 332.692 424.987 335.61 424.209 339.329C423.79 341.313 422.981 343.193 421.83 344.862C420.679 346.531 419.208 347.955 417.503 349.052C415.798 350.148 413.892 350.896 411.896 351.251C409.9 351.607 407.854 351.563 405.875 351.122L405.911 351.098Z" fill="#84685E"/>
<path d="M425.657 332.811C419.872 331.311 414.639 328.186 410.575 323.805C410.575 323.805 412.214 333.935 425.011 336.016L425.657 332.811Z" fill="#664D42"/>
<path d="M421.53 310.41C421.876 310.175 422.271 310.02 422.685 309.958C423.098 309.896 423.521 309.928 423.921 310.051C424.32 310.175 424.687 310.387 424.994 310.672C425.301 310.956 425.539 311.306 425.692 311.696C425.845 312.085 425.908 312.504 425.877 312.922C425.846 313.339 425.721 313.744 425.512 314.106C425.303 314.469 425.015 314.779 424.669 315.015C424.324 315.251 423.929 315.406 423.516 315.469C422.753 315.57 421.979 315.414 421.315 315.027C420.799 314.765 420.38 314.346 420.119 313.831C419.963 313.438 419.911 313.011 419.967 312.592C420.024 312.173 420.187 311.776 420.442 311.439C420.827 310.863 421.365 310.407 421.997 310.123" fill="#664D42"/>
<path d="M442.137 301.045C442.023 301.514 441.73 301.919 441.321 302.174C440.912 302.429 440.419 302.513 439.949 302.409C439.716 302.367 439.495 302.28 439.297 302.152C439.099 302.023 438.929 301.857 438.797 301.662C438.664 301.467 438.572 301.247 438.525 301.016C438.479 300.785 438.479 300.547 438.525 300.316C438.639 299.85 438.93 299.447 439.337 299.192C439.743 298.937 440.233 298.851 440.702 298.952C440.935 298.992 441.158 299.079 441.357 299.207C441.556 299.334 441.728 299.501 441.862 299.696C441.995 299.891 442.089 300.111 442.136 300.343C442.183 300.574 442.184 300.813 442.137 301.045V301.045Z" fill="#263238"/>
<path d="M443.823 296.68C443.548 296.847 442.448 295.484 440.522 295.018C438.597 294.551 436.934 295.125 436.791 294.838C436.647 294.551 437.042 294.336 437.772 294.049C438.753 293.689 439.822 293.639 440.833 293.905C441.839 294.152 442.737 294.719 443.393 295.52C443.871 296.13 443.967 296.608 443.823 296.68Z" fill="#263238"/>
<path d="M424.7 297.051C424.586 297.519 424.293 297.924 423.884 298.179C423.475 298.434 422.982 298.518 422.511 298.414C422.279 298.375 422.057 298.29 421.858 298.164C421.659 298.037 421.489 297.871 421.356 297.677C421.223 297.483 421.13 297.263 421.084 297.032C421.038 296.801 421.04 296.563 421.088 296.333C421.202 295.864 421.495 295.459 421.904 295.204C422.313 294.949 422.806 294.865 423.277 294.969C423.508 295.01 423.729 295.096 423.927 295.223C424.125 295.35 424.295 295.515 424.428 295.709C424.561 295.903 424.653 296.122 424.7 296.352C424.746 296.583 424.747 296.82 424.7 297.051V297.051Z" fill="#263238"/>
<path d="M425.19 292.386C424.903 292.554 423.802 291.19 421.877 290.724C419.951 290.257 418.289 290.831 418.145 290.544C418.002 290.257 418.397 290.042 419.126 289.755C420.112 289.395 421.185 289.345 422.2 289.611C423.201 289.861 424.094 290.427 424.747 291.226C425.226 291.824 425.321 292.302 425.19 292.386Z" fill="#263238"/>
<path d="M428.049 308.365C429.147 308.302 430.249 308.382 431.326 308.604C431.828 308.676 432.319 308.699 432.522 308.377C432.674 307.877 432.674 307.345 432.522 306.846C432.366 305.53 432.199 304.155 432.032 302.719C431.374 296.871 431.039 292.111 431.278 292.087C431.517 292.063 432.235 296.787 432.881 302.636C433.024 304.071 433.168 305.446 433.311 306.762C433.461 307.436 433.376 308.14 433.072 308.759C432.955 308.913 432.805 309.039 432.634 309.128C432.462 309.217 432.273 309.267 432.079 309.273C431.785 309.274 431.492 309.237 431.206 309.166C430.125 309.029 429.065 308.76 428.049 308.365V308.365Z" fill="#263238"/>
<path d="M422.045 308.233C422.356 308.305 421.83 310.386 423.241 312.336C424.652 314.285 426.937 314.62 426.829 314.919C426.722 315.218 426.231 315.194 425.286 314.979C424.058 314.682 422.974 313.962 422.225 312.946C421.504 311.965 421.191 310.743 421.351 309.537C421.531 308.652 421.902 308.185 422.045 308.233Z" fill="#263238"/>
<path d="M427.163 284.864C426.84 285.342 424.975 284.6 422.643 284.289C420.31 283.978 418.337 284.134 418.158 283.584C418.074 283.321 418.516 282.914 419.354 282.591C420.509 282.211 421.739 282.109 422.942 282.292C424.136 282.449 425.275 282.887 426.266 283.572C426.972 284.122 427.307 284.648 427.163 284.864Z" fill="#263238"/>
<path d="M444.469 291.035C444.015 291.382 442.807 290.58 441.216 290.15C439.626 289.719 438.202 289.695 437.999 289.157C437.927 288.894 438.25 288.511 438.944 288.248C439.866 287.955 440.854 287.942 441.783 288.213C442.712 288.483 443.539 289.024 444.158 289.767C444.601 290.353 444.673 290.855 444.469 291.035Z" fill="#263238"/>
<path d="M402.646 293.642C402.454 293.486 394.68 288.858 392.755 297.517C390.829 306.176 399.931 306.307 399.931 306.068C399.931 305.829 402.646 293.642 402.646 293.642Z" fill="#84685E"/>
<path d="M398.065 302.205C398.065 302.205 397.885 302.277 397.61 302.337C397.217 302.408 396.81 302.326 396.474 302.109C395.996 301.63 395.654 301.031 395.484 300.375C395.314 299.719 395.321 299.03 395.505 298.378C395.648 297.634 395.955 296.932 396.402 296.321C396.542 296.069 396.742 295.856 396.984 295.699C397.226 295.543 397.503 295.448 397.79 295.424C397.974 295.414 398.156 295.47 398.303 295.582C398.449 295.693 398.552 295.854 398.591 296.034C398.651 296.297 398.591 296.452 398.591 296.488C398.591 296.524 398.806 296.381 398.818 296.01C398.813 295.783 398.733 295.565 398.591 295.388C398.393 295.159 398.115 295.013 397.814 294.981C397.444 294.975 397.079 295.062 396.752 295.236C396.426 295.41 396.149 295.664 395.948 295.974C395.406 296.638 395.04 297.428 394.883 298.27C394.549 300.016 395.075 301.858 396.247 302.48C396.463 302.6 396.702 302.67 396.949 302.685C397.195 302.699 397.442 302.658 397.67 302.564C398.005 302.408 398.089 302.229 398.065 302.205Z" fill="#664D42"/>
<path d="M445.713 276.049C447.28 275.57 443.811 269.901 440.702 267.605C436.002 264.125 428.371 260.979 423.288 261.314C417.165 261.721 411.747 263.563 407.74 268.203C403.803 272.958 401.202 278.675 400.205 284.768C399.736 286.592 399.764 288.508 400.289 290.317C401.078 292.458 403.111 294.144 402.513 296.716C402.253 297.633 402.33 298.613 402.729 299.478C403.925 301.715 406.317 300.531 407.513 299.096C410.132 296.118 411.208 292.135 412.213 288.332C413.109 285.297 413.631 282.164 413.768 279.003C413.719 277.996 413.824 276.988 414.079 276.013C414.453 274.405 415.284 272.939 416.471 271.791C416.763 271.554 417.08 271.35 417.416 271.181C418.646 270.537 420.024 270.228 421.412 270.284C422.799 270.341 424.148 270.762 425.321 271.504C429.866 274.267 433.215 277.879 439.386 276.754C440.474 276.457 441.475 275.903 442.304 275.14C442.873 274.833 443.535 274.749 444.162 274.907C444.788 275.064 445.333 275.45 445.689 275.989L445.713 276.049Z" fill="#263238"/>
<path d="M399.225 309.142C399.225 309.142 399.225 309.357 399.022 309.585C398.845 309.72 398.642 309.818 398.426 309.871C398.21 309.925 397.985 309.933 397.766 309.896C397.123 309.825 396.521 309.544 396.056 309.094C395.46 308.541 395.104 307.777 395.063 306.965C395.033 306.163 395.287 305.375 395.781 304.741C396.186 304.242 396.732 303.875 397.347 303.688C398.388 303.389 399.046 303.688 399.022 303.748C398.998 303.808 398.376 303.748 397.527 304.167C396.99 304.395 396.537 304.783 396.227 305.277C395.917 305.77 395.765 306.347 395.793 306.93C395.829 307.506 396.048 308.055 396.418 308.498C396.788 308.941 397.289 309.255 397.85 309.393C398.18 309.501 398.536 309.501 398.866 309.393C399.082 309.25 399.165 309.118 399.225 309.142Z" fill="#263238"/>
<path d="M522.736 426.207L499.617 411.029L491.472 417.189L435.499 414.665V416.256L431.995 434.973L501.507 430.823C501.507 430.823 505.609 433.921 507.427 433.215C509.245 432.509 510.859 431.72 510.859 431.72L513.622 432.593C514.551 432.45 515.435 432.099 516.209 431.567C516.984 431.035 517.628 430.335 518.095 429.519C518.095 429.519 521.97 433.622 523.968 433.67C525.965 433.717 522.736 426.207 522.736 426.207Z" fill="#84685E"/>
<path d="M395.876 329.905C395.876 329.905 387.6 330.862 381.955 334.856C373.021 341.171 363.632 355.726 360.534 375.915C357.951 392.659 359.602 410.683 358.812 423.001C357.616 441.671 357.556 450.091 358.812 454.217C360.893 461.07 364.649 484.56 380.125 486.94C383.354 482.292 385.843 477.172 387.504 471.762C389.585 464.024 396.701 442.52 416.615 439.877C418.385 439.638 438.418 436.624 438.418 436.624C438.418 436.624 437.078 417.368 437.078 409.774C437.078 405.982 438.274 398.83 439.59 392.635C441.205 384.706 438.956 376.298 436.803 368.5C434.651 360.702 433.024 350.165 431.577 347.426C429.633 344.118 426.793 341.427 423.384 339.664L395.876 329.905Z" fill="#84C0FF"/>
<path d="M395.876 329.905C395.876 329.905 406.174 341.972 411.424 355.918C415.132 365.749 428.168 391.26 428.168 391.26C428.168 391.26 427.642 372.746 426.494 362.998C424.819 348.814 424.042 340.059 424.042 340.059L410.706 332.823L395.876 329.905Z" fill="#84685E"/>
<path d="M411.173 440.475C410.524 440.515 409.873 440.515 409.224 440.475C407.463 440.506 405.709 440.702 403.985 441.061C401.431 441.588 398.941 442.39 396.558 443.453C393.628 444.733 390.901 446.433 388.461 448.5C384.213 452.475 380.531 457.014 377.518 461.991C376.322 463.821 375.401 465.328 374.683 466.488C374.361 467.055 373.993 467.595 373.583 468.102C373.832 467.498 374.128 466.914 374.468 466.356C375.078 465.256 375.975 463.677 377.135 461.763C380.074 456.667 383.754 452.036 388.055 448.021C390.546 445.936 393.336 444.235 396.331 442.974C398.76 441.914 401.305 441.144 403.914 440.678C405.663 440.347 407.445 440.214 409.224 440.283C409.708 440.292 410.192 440.332 410.671 440.403C410.841 440.402 411.01 440.426 411.173 440.475V440.475Z" fill="#263238"/>
<path d="M363.871 380.579C363.871 380.579 370.545 339.222 389.155 337.667C407.764 336.112 405.839 358.094 404.894 368.691C404.463 374.151 403.744 379.584 402.741 384.969L363.871 380.579Z" fill="#84C0FF"/>
<path d="M404.248 384.969H403.531L401.402 384.777L393.233 384L364.039 381.118H363.704L363.8 380.795C365.438 375.771 366.491 370.126 367.854 364.23C369.218 358.334 370.988 352.091 374.588 346.481C377.324 341.999 381.472 338.553 386.38 336.686C388.743 335.858 391.272 335.62 393.748 335.992C396.157 336.339 398.354 337.561 399.919 339.425C401.342 341.182 402.517 343.126 403.411 345.202C403.857 346.195 404.194 347.234 404.416 348.299C404.595 349.352 404.739 350.368 404.87 351.385C405.352 355.134 405.615 358.908 405.66 362.687C405.676 368.155 405.417 373.619 404.882 379.06C404.691 380.974 404.547 382.457 404.44 383.522C404.44 384 404.344 384.383 404.308 384.717C404.301 384.843 404.281 384.967 404.248 385.088C404.248 385.088 404.248 384.945 404.248 384.67C404.248 384.395 404.248 384 404.32 383.474C404.392 382.421 404.5 380.938 404.631 379.048C404.882 375.185 405.325 369.6 405.205 362.699C405.135 358.934 404.847 355.177 404.344 351.445C404.213 350.452 404.057 349.412 403.878 348.395C403.661 347.369 403.333 346.37 402.897 345.417C402.018 343.4 400.867 341.513 399.476 339.808C397.997 338.047 395.918 336.897 393.64 336.579C391.26 336.228 388.829 336.462 386.56 337.26C381.789 339.098 377.761 342.462 375.102 346.828C371.574 352.318 369.816 358.525 368.428 364.374C367.041 370.222 366.036 375.903 364.314 380.962L364.087 380.603L393.078 383.749L401.282 384.67L403.471 384.933L404.033 385.005L404.248 384.969Z" fill="#263238"/>
<g opacity="0.3">
<path opacity="0.3" d="M372.375 459.432C371.692 460.162 371.199 461.049 370.94 462.015C370.825 462.5 370.87 463.009 371.069 463.466C371.267 463.923 371.608 464.303 372.04 464.551C373.296 465.113 374.648 464.036 375.628 463.02C379.025 459.3 381.967 455.186 385.352 451.442C388.367 447.781 392.248 444.928 396.642 443.142C384.921 446.694 380.054 449.947 372.375 459.432Z" fill="black"/>
</g>
<g opacity="0.3">
<path opacity="0.3" d="M435.906 416.507C435.882 416.197 435.791 415.895 435.641 415.623C435.49 415.35 435.283 415.114 435.033 414.928C434.691 414.801 434.327 414.748 433.963 414.775C433.6 414.802 433.247 414.907 432.928 415.084L406.616 425.202C401.473 427.187 395.852 429.196 390.554 427.594C385.016 425.943 381.201 420.585 379.873 414.964C378.546 409.343 379.275 403.459 380.22 397.754C381.165 392.049 382.803 382.923 382.803 382.923L366.442 381.309C364.624 398.579 363.333 418.791 366.622 433.107C367.877 438.573 370.891 441.994 375.592 445.067C379.455 447.567 386.75 444.673 391.534 442.771C403.961 437.82 415.789 432.856 425.584 427.223C427.976 425.848 435.32 420.872 436.934 418.636C438.549 416.399 436.384 419.222 435.906 416.507Z" fill="black"/>
</g>
<path d="M368.44 381.524C368.44 381.524 367.315 411.795 368.523 423.922C369.456 433.143 372.853 439.614 378.163 440.499C383.473 441.384 405.551 435.631 418.588 429.005C426.88 424.752 434.952 420.082 442.771 415.012L441.778 402.753C441.778 402.753 417.488 408.255 413.29 408.912C409.092 409.57 396.271 410.981 396.271 410.981C396.271 410.599 400.349 384.741 400.349 384.741L368.44 381.524Z" fill="#84685E"/>
<path d="M473.915 400.217C472.803 399.093 446.813 402.119 442.412 402.609L441.778 402.681L442.771 414.94H461.512L462.122 417.858C462.122 417.858 459.73 417.488 458.462 418.588C457.195 419.688 462.637 420.729 463.821 420.896C467.157 421.363 468.832 418.074 468.832 418.074C471.511 419.832 473.927 416.531 473.927 416.531C476.068 418.074 477.933 414.689 477.933 414.689C477.933 414.689 481.342 418.277 483.291 418.707C484.578 418.923 485.892 418.923 487.178 418.707C487.178 418.707 475.135 401.425 473.915 400.217Z" fill="#84685E"/>
<path d="M468.832 417.679C468.641 417.679 468.318 415.741 467.361 413.541C466.7 412.244 465.965 410.986 465.16 409.773C466.452 410.602 467.429 411.84 467.935 413.29C468.62 414.647 468.93 416.162 468.832 417.679V417.679Z" fill="#664D42"/>
<path d="M468.903 406.832C468.903 406.772 469.525 407.071 470.267 407.824C471.183 408.831 471.919 409.988 472.444 411.245C472.996 412.471 473.452 413.739 473.807 415.036C474.058 416.065 473.879 416.746 473.807 416.723C473.735 416.699 473.735 416.089 473.4 415.156C473.066 414.223 472.503 412.895 471.893 411.496C471.382 410.294 470.727 409.157 469.944 408.111C469.322 407.322 468.832 406.903 468.903 406.832Z" fill="#664D42"/>
<path d="M473.461 404.535C475.91 407.711 477.551 411.433 478.245 415.383C478.078 415.383 477.264 412.907 475.925 409.917C474.585 406.927 473.306 404.631 473.461 404.535Z" fill="#664D42"/>
<path d="M488.255 548.019L486.222 523.848H513.933L513.084 547.517C513.084 547.517 505.513 553.844 500.454 553.688C495.395 553.533 488.255 548.019 488.255 548.019Z" fill="#84685E"/>
<path d="M513.084 549.909V547.517C505.08 550.458 496.323 550.635 488.207 548.019L488.602 565.23L540.424 564.309C540.078 559.369 513.084 549.909 513.084 549.909Z" fill="#84C0FF"/>
<path d="M488.65 565.23L488.555 561.032L538.38 561.725C538.38 561.725 540.7 562.682 540.473 564.309L488.65 565.23Z" fill="#263238"/>
<path d="M513.933 549.622C513.933 549.885 512.666 550.016 511.434 550.818C510.202 551.619 509.556 552.731 509.317 552.636C509.078 552.54 509.436 551.069 510.943 550.088C512.45 549.107 513.981 549.395 513.933 549.622Z" fill="#263238"/>
<path d="M519.399 551.775C519.471 552.026 518.383 552.468 517.534 553.557C516.684 554.645 516.469 555.781 516.218 555.769C515.967 555.757 515.775 554.334 516.852 553.007C517.928 551.679 519.399 551.536 519.399 551.775Z" fill="#263238"/>
<path d="M522.652 558.233C522.425 558.293 522.054 557.037 522.652 555.637C523.25 554.238 524.446 553.664 524.566 553.867C524.685 554.071 523.956 554.836 523.453 555.984C522.951 557.132 522.855 558.197 522.652 558.233Z" fill="#263238"/>
<path d="M495.957 556.343C495.957 556.613 495.877 556.877 495.728 557.101C495.578 557.325 495.365 557.5 495.116 557.603C494.867 557.706 494.592 557.733 494.328 557.681C494.063 557.628 493.82 557.498 493.63 557.308C493.439 557.117 493.309 556.874 493.257 556.609C493.204 556.345 493.231 556.071 493.334 555.822C493.437 555.573 493.612 555.36 493.836 555.21C494.061 555.06 494.324 554.98 494.594 554.98C494.773 554.978 494.951 555.013 495.118 555.081C495.284 555.149 495.435 555.249 495.562 555.376C495.688 555.503 495.789 555.654 495.857 555.82C495.925 555.986 495.959 556.164 495.957 556.343Z" fill="#263238"/>
<path d="M380.902 485.755C380.675 486.114 403.052 489.343 422.14 488.363C441.228 487.382 481.569 472.42 481.569 472.42C480.602 478.215 480.034 484.069 479.871 489.941C479.811 497.955 483.758 525.08 483.758 525.08H516.887V466.942C516.887 466.942 515.954 444.996 515.895 441.372C515.787 435.93 509.305 428.108 498.708 428.718C489.774 429.244 410.575 440.559 410.575 440.559C410.575 440.559 398.615 444.338 393.831 450.701C389.047 457.063 380.902 485.755 380.902 485.755Z" fill="#263238"/>
<path d="M392.993 466.44C392.021 466.71 391.004 466.783 390.003 466.655C388.992 466.728 387.977 466.585 387.025 466.237C388.002 465.969 389.023 465.9 390.027 466.034C391.033 465.966 392.043 466.105 392.993 466.44V466.44Z" fill="#455A64"/>
<path d="M404.942 465.854C403.998 466.226 402.99 466.405 401.976 466.38C400.98 466.559 399.958 466.53 398.974 466.297C399.913 465.925 400.918 465.746 401.928 465.77C402.928 465.593 403.953 465.622 404.942 465.854Z" fill="#455A64"/>
<path d="M416.794 464.275C415.881 464.717 414.889 464.974 413.876 465.029C412.895 465.28 411.874 465.329 410.874 465.172C411.783 464.716 412.777 464.456 413.792 464.407C414.774 464.163 415.795 464.119 416.794 464.275Z" fill="#455A64"/>
<path d="M428.539 462.051C426.687 462.844 424.693 463.251 422.679 463.247C424.526 462.438 426.523 462.03 428.539 462.051V462.051Z" fill="#455A64"/>
<path d="M440.224 459.479C438.39 460.314 436.402 460.758 434.388 460.783C435.261 460.272 436.23 459.947 437.234 459.826C438.197 459.509 439.214 459.391 440.224 459.479V459.479Z" fill="#455A64"/>
<path d="M451.885 456.872C451.012 457.383 450.043 457.708 449.039 457.829C448.076 458.146 447.059 458.264 446.049 458.176C446.93 457.672 447.901 457.347 448.907 457.219C449.866 456.902 450.879 456.784 451.885 456.872Z" fill="#455A64"/>
<path d="M463.606 454.48C462.717 454.962 461.741 455.263 460.735 455.365C459.764 455.66 458.742 455.753 457.733 455.64C458.625 455.154 459.605 454.853 460.616 454.755C461.583 454.46 462.601 454.366 463.606 454.48V454.48Z" fill="#455A64"/>
<path d="M475.41 452.567C474.502 453.006 473.513 453.255 472.504 453.296C471.518 453.539 470.493 453.58 469.49 453.416C470.405 452.981 471.397 452.733 472.408 452.686C473.389 452.435 474.413 452.394 475.41 452.567V452.567Z" fill="#455A64"/>
<path d="M487.334 451.837C486.364 452.043 485.371 452.127 484.38 452.088C483.381 452.243 482.363 452.206 481.378 451.981C482.321 451.593 483.338 451.418 484.356 451.466C485.364 451.31 486.395 451.439 487.334 451.837Z" fill="#455A64"/>
<path d="M494.187 460.03C493.855 459.093 493.631 458.122 493.518 457.135C493.183 455.569 492.453 454.48 492.573 454.373C492.692 454.265 493.769 455.281 494.127 456.992C494.451 457.975 494.472 459.034 494.187 460.03V460.03Z" fill="#455A64"/>
<path d="M494.654 471.977C494.315 471.023 494.169 470.011 494.224 468.999C494.081 468.001 494.142 466.984 494.403 466.009C494.91 467.962 494.996 470.001 494.654 471.989V471.977Z" fill="#455A64"/>
<path d="M495.252 483.925C494.733 481.975 494.627 479.939 494.941 477.945C495.304 478.89 495.463 479.901 495.408 480.911C495.558 481.916 495.505 482.941 495.252 483.925V483.925Z" fill="#455A64"/>
<path d="M495.897 495.862C495.383 493.911 495.273 491.876 495.574 489.882C495.93 490.829 496.093 491.837 496.053 492.848C496.211 493.852 496.158 494.879 495.897 495.862V495.862Z" fill="#455A64"/>
<path d="M496.532 507.81C496.015 505.859 495.909 503.823 496.221 501.83C496.581 502.779 496.739 503.793 496.687 504.808C496.836 505.809 496.783 506.829 496.532 507.81V507.81Z" fill="#455A64"/>
<path d="M497.07 519.758C496.725 518.805 496.575 517.792 496.627 516.78C496.493 515.776 496.558 514.756 496.819 513.778C497.164 514.731 497.311 515.744 497.249 516.756C497.39 517.759 497.329 518.779 497.07 519.758V519.758Z" fill="#455A64"/>
<path d="M493.948 444.015C493.341 445.442 492.659 446.835 491.903 448.189C490.612 450.749 488.901 454.313 487.191 458.331C485.481 462.35 484.141 466.069 483.208 468.772C482.76 470.257 482.237 471.718 481.642 473.15C481.666 472.743 481.742 472.341 481.869 471.954C482.06 471.176 482.371 470.052 482.79 468.677C483.886 465.094 485.163 461.569 486.617 458.116C488.076 454.669 489.713 451.299 491.521 448.022C492.214 446.766 492.8 445.761 493.231 445.08C493.424 444.696 493.665 444.338 493.948 444.015V444.015Z" fill="#455A64"/>
<path d="M504.246 454.659C504.246 454.755 502.691 455.377 500.24 456.633C497.061 458.279 494.059 460.247 491.281 462.505C488.521 464.787 486.008 467.353 483.783 470.159C482.072 472.312 481.139 473.747 481.056 473.747C481.186 473.364 481.372 473.002 481.606 472.671C482.163 471.727 482.77 470.812 483.424 469.932C485.582 467.018 488.088 464.379 490.887 462.074C493.69 459.774 496.767 457.83 500.048 456.286C501.038 455.814 502.052 455.395 503.086 455.03C503.451 454.847 503.842 454.721 504.246 454.659V454.659Z" fill="#455A64"/>
<path d="M435.667 419.437C435.804 419.312 435.952 419.2 436.11 419.102L437.461 418.217L442.688 414.844L461.429 414.713H461.632V414.916L462.254 417.834L462.326 418.193H461.955C460.77 417.975 459.546 418.219 458.535 418.875C458.164 419.007 458.941 419.473 459.492 419.664C460.119 419.89 460.758 420.081 461.405 420.238C462.687 420.663 464.05 420.786 465.388 420.597C466.705 420.172 467.803 419.249 468.45 418.026L468.617 417.739L468.88 417.906C469.239 418.151 469.653 418.303 470.085 418.349C470.517 418.395 470.954 418.333 471.356 418.169C472.23 417.791 472.992 417.194 473.569 416.435L473.736 416.22L473.987 416.363C474.266 416.569 474.598 416.689 474.944 416.71C475.302 416.699 475.651 416.587 475.949 416.387C476.609 415.931 477.158 415.329 477.551 414.629L477.755 414.27L478.042 414.569C478.951 415.525 479.926 416.416 480.96 417.236C481.482 417.647 482.048 418 482.646 418.289C483.263 418.514 483.915 418.631 484.572 418.636C485.372 418.66 486.173 418.608 486.964 418.48L486.76 418.971C483.4 414.187 480.135 409.498 477.001 405.121L474.812 401.856L474.226 401.09C474.058 400.855 473.87 400.635 473.664 400.433C473.399 400.36 473.126 400.316 472.851 400.301H471.918C469.418 400.301 466.979 400.492 464.658 400.66C455.353 401.413 447.675 402.286 442.413 402.849L436.146 404.14L434.519 404.451C434.336 404.499 434.147 404.524 433.957 404.523L434.495 404.368L436.11 403.985L442.353 402.562C447.603 401.916 455.282 400.971 464.599 400.17C466.931 399.99 469.383 399.787 471.906 399.775C472.217 399.775 472.54 399.775 472.875 399.775C473.239 399.776 473.6 399.845 473.939 399.978C474.211 400.21 474.452 400.475 474.657 400.768L475.255 401.545C476.02 402.597 476.81 403.674 477.647 404.75C480.792 409.116 484.057 413.768 487.43 418.588L487.705 418.995L487.227 419.078C486.376 419.209 485.516 419.261 484.655 419.234C483.919 419.232 483.189 419.094 482.503 418.827C481.858 418.526 481.251 418.149 480.697 417.703C479.633 416.862 478.629 415.947 477.695 414.964L478.197 414.904C477.752 415.697 477.13 416.377 476.379 416.89C475.978 417.144 475.515 417.284 475.04 417.296C474.57 417.276 474.116 417.118 473.736 416.842L474.167 416.77C473.518 417.584 472.669 418.215 471.703 418.6C471.21 418.797 470.677 418.87 470.15 418.814C469.622 418.758 469.117 418.573 468.677 418.277L469.107 418.157C468.375 419.525 467.14 420.554 465.663 421.028C464.93 421.189 464.171 421.189 463.438 421.028C462.745 420.908 462.063 420.765 461.393 420.597C460.723 420.441 460.064 420.242 459.42 419.999C459.084 419.872 458.763 419.708 458.463 419.509C458.274 419.389 458.128 419.214 458.044 419.007C458.011 418.877 458.015 418.74 458.058 418.612C458.1 418.485 458.179 418.373 458.284 418.289C458.833 417.848 459.497 417.574 460.197 417.5C460.848 417.416 461.508 417.416 462.159 417.5L461.86 417.811C461.656 416.794 461.453 415.789 461.262 414.892L461.513 415.096H442.772H442.855L437.557 418.337L436.158 419.162C436.002 419.266 435.838 419.358 435.667 419.437Z" fill="#664D42"/>
<path d="M516.887 470.482C516.83 470.276 516.802 470.063 516.804 469.849C516.804 469.358 516.744 468.748 516.696 468.007C516.624 466.332 516.529 464.036 516.421 461.261C516.313 458.487 516.206 454.982 516.086 451.239C516.002 449.361 516.014 447.352 515.859 445.331C515.677 443.238 515.313 441.165 514.77 439.135C514.498 438.11 514.15 437.107 513.73 436.133C513.307 435.216 512.724 434.381 512.008 433.67C510.631 432.297 509.008 431.198 507.224 430.428C505.618 429.71 503.896 429.285 502.141 429.173C500.595 429.082 499.046 429.082 497.5 429.173C494.654 429.328 492.357 429.567 490.767 429.699L488.937 429.83C488.722 429.857 488.505 429.857 488.291 429.83C488.495 429.755 488.708 429.711 488.925 429.699L490.743 429.448C492.322 429.244 494.618 428.945 497.476 428.718C499.036 428.591 500.601 428.551 502.165 428.598C503.988 428.696 505.779 429.122 507.451 429.854C509.31 430.641 511.002 431.773 512.438 433.191C513.205 433.957 513.833 434.852 514.292 435.834C514.722 436.84 515.077 437.875 515.357 438.932C515.916 440.995 516.284 443.105 516.457 445.235C516.6 447.316 516.588 449.277 516.648 451.215C516.72 454.97 516.792 458.391 516.852 461.249C516.911 464.108 516.852 466.32 516.923 468.007V469.849C516.94 470.06 516.927 470.274 516.887 470.482Z" fill="#455A64"/>
<path d="M443.453 432.294L492.369 423.54L526.61 370.162L560.218 377.195L528.632 425.704L440.128 436.755C440.008 435.728 440.286 434.694 440.904 433.865C441.522 433.035 442.434 432.473 443.453 432.294Z" fill="#455A64"/>
<path d="M528.07 399.536C527.041 400.935 526.874 402.586 527.747 403.196C528.62 403.805 530.139 403.196 531.132 401.772C532.124 400.349 532.328 398.734 531.455 398.113C530.582 397.491 529.087 398.136 528.07 399.536Z" fill="white"/>
</svg>
